<svg viewBox="0 0 359.07 262.12" height="262.12" width="359.07" xmlns:xlink="http://www.w3.org/1999/xlink" xmlns="http://www.w3.org/2000/svg">
  <defs>
    <linearGradient gradientUnits="objectBoundingBox" y2="1" x2="0.5" x1="0.5" id="linear-gradient">
      <stop stop-color="#428fce" offset="0"></stop>
      <stop stop-opacity="0" stop-color="#5ecfff" offset="1"></stop>
    </linearGradient>
    <linearGradient gradientUnits="objectBoundingBox" y2="1" x2="0.5" x1="0.5" id="linear-gradient-2">
      <stop stop-color="#59ace9" offset="0"></stop>
      <stop stop-opacity="0" stop-color="#5ecfff" offset="1"></stop>
    </linearGradient>
    <linearGradient xlink:href="#linear-gradient-2" y2="1" x2="0.5" y1="0" x1="0.5" id="linear-gradient-3"></linearGradient>
    <linearGradient xlink:href="#linear-gradient-2" y2="1" x2="0.5" y1="0" x1="0.5" id="linear-gradient-4"></linearGradient>
    <linearGradient xlink:href="#linear-gradient-2" y2="1" x2="0.5" y1="0" x1="0.5" id="linear-gradient-5"></linearGradient>
  </defs>
  <g transform="translate(-53.21)" id="图层_2">
    <g id="图层_1">
      <path fill="url(#linear-gradient)" opacity="0.4" d="M412.28,262.12c-23-23-61-37.69-179.53-37.69S76.24,239.1,53.21,262.12Z" id="路径_682"></path>
      <g opacity="0.7" id="组_534">
        <path fill="url(#linear-gradient-2)" opacity="0.4" d="M380.66,26.68H318.07a2.71,2.71,0,0,0-2.82,2.59V201.44a2.71,2.71,0,0,0,2.82,2.59h62.59a2.72,2.72,0,0,0,2.82-2.59V29.27a2.72,2.72,0,0,0-2.82-2.59ZM328.3,147a.9.9,0,0,1-.95.87h-3.6a.9.9,0,0,1-.95-.87V127.27a.91.91,0,0,1,.95-.87h3.6a.91.91,0,0,1,.95.87Zm0-30.23a.91.91,0,0,1-.95.87h-3.6a.91.91,0,0,1-.95-.87V97a.91.91,0,0,1,.95-.87h3.6a.91.91,0,0,1,.95.87Zm0-30.24a.91.91,0,0,1-.95.87h-3.6a.91.91,0,0,1-.95-.87V66.8a.91.91,0,0,1,.95-.87h3.6a.91.91,0,0,1,.95.87Zm0-30.24a.91.91,0,0,1-.95.87h-3.6a.91.91,0,0,1-.95-.87V36.56a.91.91,0,0,1,.95-.87h3.6a.91.91,0,0,1,.95.87ZM340,147a.9.9,0,0,1-.94.87h-3.61a.91.91,0,0,1-.95-.87V127.27a.92.92,0,0,1,.95-.87h3.61a.91.91,0,0,1,.94.87Zm0-30.23a.91.91,0,0,1-.94.87h-3.61a.92.92,0,0,1-.95-.87V97a.92.92,0,0,1,.95-.87h3.61A.91.91,0,0,1,340,97Zm0-30.24a.91.91,0,0,1-.94.87h-3.61a.92.92,0,0,1-.95-.87V66.8a.92.92,0,0,1,.95-.87h3.61a.91.91,0,0,1,.94.87Zm0-30.24a.91.91,0,0,1-.94.87h-3.61a.92.92,0,0,1-.95-.87V36.56a.92.92,0,0,1,.95-.87h3.61a.91.91,0,0,1,.94.87ZM351.7,147a.9.9,0,0,1-.94.87h-3.61a.9.9,0,0,1-.94-.87V127.27a.91.91,0,0,1,.94-.87h3.61a.91.91,0,0,1,.94.87Zm0-30.23a.91.91,0,0,1-.94.87h-3.61a.91.91,0,0,1-.94-.87V97a.91.91,0,0,1,.94-.87h3.61a.91.91,0,0,1,.94.87Zm0-30.24a.91.91,0,0,1-.94.87h-3.61a.91.91,0,0,1-.94-.87V66.8a.91.91,0,0,1,.94-.87h3.61a.91.91,0,0,1,.94.87Zm0-30.24a.91.91,0,0,1-.94.87h-3.61a.91.91,0,0,1-.94-.87V36.56a.91.91,0,0,1,.94-.87h3.61a.91.91,0,0,1,.94.87ZM363.4,147a.9.9,0,0,1-.94.87h-3.61a.9.9,0,0,1-.94-.87V127.27a.91.91,0,0,1,.94-.87h3.61a.91.91,0,0,1,.94.87Zm0-30.23a.91.91,0,0,1-.94.87h-3.61a.91.91,0,0,1-.94-.87V97a.91.91,0,0,1,.94-.87h3.61a.91.91,0,0,1,.94.87Zm0-30.24a.91.91,0,0,1-.94.87h-3.61a.91.91,0,0,1-.94-.87V66.8a.91.91,0,0,1,.94-.87h3.61a.91.91,0,0,1,.94.87Zm0-30.24a.91.91,0,0,1-.94.87h-3.61a.91.91,0,0,1-.94-.87V36.56a.91.91,0,0,1,.94-.87h3.61a.91.91,0,0,1,.94.87ZM375.11,147a.91.91,0,0,1-.95.87h-3.61a.9.9,0,0,1-.94-.87V127.27a.91.91,0,0,1,.94-.87h3.61a.92.92,0,0,1,.95.87Zm0-30.23a.92.92,0,0,1-.95.87h-3.61a.91.91,0,0,1-.94-.87V97a.91.91,0,0,1,.94-.87h3.61a.92.92,0,0,1,.95.87Zm0-30.24a.92.92,0,0,1-.95.87h-3.61a.91.91,0,0,1-.94-.87V66.8a.91.91,0,0,1,.94-.87h3.61a.92.92,0,0,1,.95.87Zm0-30.24a.92.92,0,0,1-.95.87h-3.61a.91.91,0,0,1-.94-.87V36.56a.91.91,0,0,1,.94-.87h3.61a.92.92,0,0,1,.95.87Z" id="路径_683"></path>
        <path fill="url(#linear-gradient-3)" opacity="0.4" d="M231.1,55.61H171.8A2.71,2.71,0,0,0,169,58.2V201.44a2.71,2.71,0,0,0,2.8,2.56h59.3a2.71,2.71,0,0,0,2.82-2.59V58.2a2.71,2.71,0,0,0-2.82-2.59ZM182.47,159.37a1.16,1.16,0,0,1-1.2,1.11h-5.4a1.16,1.16,0,0,1-1.2-1.11v-5.22a1.15,1.15,0,0,1,1.2-1.1h5.4a1.15,1.15,0,0,1,1.2,1.1Zm0-12.88a1.15,1.15,0,0,1-1.2,1.1h-5.4a1.15,1.15,0,0,1-1.2-1.1v-5.22a1.16,1.16,0,0,1,1.2-1.11h5.4a1.16,1.16,0,0,1,1.2,1.11Zm0-12.89a1.16,1.16,0,0,1-1.2,1.11h-5.4a1.16,1.16,0,0,1-1.2-1.11v-5.22a1.15,1.15,0,0,1,1.2-1.1h5.4a1.15,1.15,0,0,1,1.2,1.1Zm0-12.88a1.15,1.15,0,0,1-1.2,1.1h-5.4a1.15,1.15,0,0,1-1.2-1.1V115.5a1.16,1.16,0,0,1,1.2-1.11h5.4a1.16,1.16,0,0,1,1.2,1.11Zm0-12.89a1.16,1.16,0,0,1-1.2,1.11h-5.4a1.16,1.16,0,0,1-1.2-1.11v-5.21a1.15,1.15,0,0,1,1.2-1.11h5.4a1.15,1.15,0,0,1,1.2,1.11Zm0-12.88a1.15,1.15,0,0,1-1.2,1.1h-5.4a1.15,1.15,0,0,1-1.2-1.1V89.73a1.16,1.16,0,0,1,1.2-1.11h5.4a1.16,1.16,0,0,1,1.2,1.11Zm0-12.89a1.16,1.16,0,0,1-1.2,1.11h-5.4a1.16,1.16,0,0,1-1.2-1.11V76.85a1.15,1.15,0,0,1,1.2-1.11h5.4a1.15,1.15,0,0,1,1.2,1.11Zm0-12.88a1.15,1.15,0,0,1-1.2,1.1h-5.4a1.15,1.15,0,0,1-1.2-1.1V64a1.16,1.16,0,0,1,1.2-1.11h5.4a1.16,1.16,0,0,1,1.2,1.11Zm10.08,90.19a1.16,1.16,0,0,1-1.2,1.11H186a1.16,1.16,0,0,1-1.21-1.11v-5.22a1.16,1.16,0,0,1,1.21-1.1h5.4a1.15,1.15,0,0,1,1.2,1.1Zm0-12.88a1.15,1.15,0,0,1-1.2,1.1H186a1.16,1.16,0,0,1-1.21-1.1v-5.22a1.16,1.16,0,0,1,1.21-1.11h5.4a1.16,1.16,0,0,1,1.2,1.11Zm0-12.89a1.16,1.16,0,0,1-1.2,1.11H186a1.16,1.16,0,0,1-1.21-1.11v-5.22a1.16,1.16,0,0,1,1.21-1.1h5.4a1.15,1.15,0,0,1,1.2,1.1Zm0-12.88a1.15,1.15,0,0,1-1.2,1.1H186a1.16,1.16,0,0,1-1.21-1.1V115.5a1.16,1.16,0,0,1,1.21-1.11h5.4a1.16,1.16,0,0,1,1.2,1.11Zm0-12.89a1.16,1.16,0,0,1-1.2,1.11H186a1.16,1.16,0,0,1-1.21-1.11v-5.21a1.16,1.16,0,0,1,1.21-1.11h5.4a1.15,1.15,0,0,1,1.2,1.11Zm0-12.88a1.15,1.15,0,0,1-1.2,1.1H186a1.16,1.16,0,0,1-1.21-1.1V89.73A1.16,1.16,0,0,1,186,88.62h5.4a1.16,1.16,0,0,1,1.2,1.11Zm0-12.89a1.16,1.16,0,0,1-1.2,1.11H186a1.16,1.16,0,0,1-1.21-1.11V76.85A1.16,1.16,0,0,1,186,75.74h5.4a1.15,1.15,0,0,1,1.2,1.11Zm0-12.88a1.15,1.15,0,0,1-1.2,1.1H186a1.16,1.16,0,0,1-1.21-1.1V64A1.16,1.16,0,0,1,186,62.85h5.4a1.16,1.16,0,0,1,1.2,1.11Zm10.08,90.19a1.16,1.16,0,0,1-1.21,1.11H196a1.16,1.16,0,0,1-1.2-1.11v-5.22a1.15,1.15,0,0,1,1.2-1.1h5.4a1.16,1.16,0,0,1,1.21,1.1Zm0-12.88a1.16,1.16,0,0,1-1.21,1.1H196a1.15,1.15,0,0,1-1.2-1.1v-5.22a1.16,1.16,0,0,1,1.2-1.11h5.4a1.16,1.16,0,0,1,1.21,1.11Zm0-12.89a1.16,1.16,0,0,1-1.21,1.11H196a1.16,1.16,0,0,1-1.2-1.11v-5.22a1.15,1.15,0,0,1,1.2-1.1h5.4a1.16,1.16,0,0,1,1.21,1.1Zm0-12.88a1.16,1.16,0,0,1-1.21,1.1H196a1.15,1.15,0,0,1-1.2-1.1V115.5a1.16,1.16,0,0,1,1.2-1.11h5.4a1.16,1.16,0,0,1,1.21,1.11Zm0-12.89a1.16,1.16,0,0,1-1.21,1.11H196a1.16,1.16,0,0,1-1.2-1.11v-5.21a1.15,1.15,0,0,1,1.2-1.11h5.4a1.16,1.16,0,0,1,1.21,1.11Zm0-12.88a1.16,1.16,0,0,1-1.21,1.1H196a1.15,1.15,0,0,1-1.2-1.1V89.73a1.16,1.16,0,0,1,1.2-1.11h5.4a1.16,1.16,0,0,1,1.21,1.11Zm0-12.89a1.16,1.16,0,0,1-1.21,1.11H196a1.16,1.16,0,0,1-1.2-1.11V76.85a1.15,1.15,0,0,1,1.2-1.11h5.4a1.16,1.16,0,0,1,1.21,1.11Zm0-12.88a1.16,1.16,0,0,1-1.21,1.1H196a1.15,1.15,0,0,1-1.2-1.1V64a1.16,1.16,0,0,1,1.2-1.11h5.4A1.16,1.16,0,0,1,202.63,64Zm25.21,90.19a1.16,1.16,0,0,1-1.2,1.11H206.1a1.16,1.16,0,0,1-1.2-1.11v-5.22a1.15,1.15,0,0,1,1.2-1.1h20.54a1.15,1.15,0,0,1,1.2,1.1Zm0-12.88a1.15,1.15,0,0,1-1.2,1.1H206.1a1.15,1.15,0,0,1-1.2-1.1v-5.22a1.16,1.16,0,0,1,1.2-1.11h20.54a1.16,1.16,0,0,1,1.2,1.11Zm0-12.89a1.16,1.16,0,0,1-1.2,1.11H206.1a1.16,1.16,0,0,1-1.2-1.11v-5.22a1.15,1.15,0,0,1,1.2-1.1h20.54a1.15,1.15,0,0,1,1.2,1.1Zm0-12.88a1.15,1.15,0,0,1-1.2,1.1H206.1a1.15,1.15,0,0,1-1.2-1.1V115.5a1.16,1.16,0,0,1,1.2-1.11h20.54a1.16,1.16,0,0,1,1.2,1.11Zm0-12.89a1.16,1.16,0,0,1-1.2,1.11H206.1a1.16,1.16,0,0,1-1.2-1.11v-5.21a1.15,1.15,0,0,1,1.2-1.11h20.54a1.15,1.15,0,0,1,1.2,1.11Zm0-12.88a1.15,1.15,0,0,1-1.2,1.1H206.1a1.15,1.15,0,0,1-1.2-1.1V89.73a1.16,1.16,0,0,1,1.2-1.11h20.54a1.16,1.16,0,0,1,1.2,1.11Zm0-12.89a1.16,1.16,0,0,1-1.2,1.11H206.1a1.16,1.16,0,0,1-1.2-1.11V76.85a1.15,1.15,0,0,1,1.2-1.11h20.54a1.15,1.15,0,0,1,1.2,1.11Zm0-12.88a1.15,1.15,0,0,1-1.2,1.1H206.1a1.15,1.15,0,0,1-1.2-1.1V64a1.16,1.16,0,0,1,1.2-1.11h20.54a1.16,1.16,0,0,1,1.2,1.11Z" id="路径_684"></path>
        <path fill="url(#linear-gradient-4)" opacity="0.4" d="M161.13,26.68H84.83A2.71,2.71,0,0,0,82,29.27V201.44A2.71,2.71,0,0,0,84.83,204h76.3a2.71,2.71,0,0,0,2.82-2.59V29.27A2.71,2.71,0,0,0,161.13,26.68ZM154.34,161a1.16,1.16,0,0,1-1.2,1.11H92.83A1.16,1.16,0,0,1,91.62,161v-5.21a1.16,1.16,0,0,1,1.21-1.11h60.31a1.15,1.15,0,0,1,1.2,1.11Zm0-14.67a1.15,1.15,0,0,1-1.2,1.1H92.83a1.16,1.16,0,0,1-1.21-1.1v-5.22A1.16,1.16,0,0,1,92.83,140h60.31a1.16,1.16,0,0,1,1.2,1.11Zm0-14.68a1.16,1.16,0,0,1-1.2,1.11H92.83a1.16,1.16,0,0,1-1.21-1.11v-5.22a1.16,1.16,0,0,1,1.21-1.1h60.31a1.15,1.15,0,0,1,1.2,1.1Zm0-14.68a1.16,1.16,0,0,1-1.2,1.11H92.83a1.16,1.16,0,0,1-1.21-1.11v-5.21a1.16,1.16,0,0,1,1.21-1.11h60.31a1.15,1.15,0,0,1,1.2,1.11Zm0-14.67a1.15,1.15,0,0,1-1.2,1.1H92.83a1.16,1.16,0,0,1-1.21-1.1V97a1.16,1.16,0,0,1,1.21-1.11h60.31a1.16,1.16,0,0,1,1.2,1.11Zm0-14.68a1.16,1.16,0,0,1-1.2,1.11H92.83a1.16,1.16,0,0,1-1.21-1.11V82.35a1.16,1.16,0,0,1,1.21-1.1h60.31a1.15,1.15,0,0,1,1.2,1.1Zm0-14.68a1.16,1.16,0,0,1-1.2,1.11H92.83a1.16,1.16,0,0,1-1.21-1.11V67.68a1.16,1.16,0,0,1,1.21-1.11h60.31a1.15,1.15,0,0,1,1.2,1.11Zm0-14.67a1.15,1.15,0,0,1-1.2,1.1H92.83a1.16,1.16,0,0,1-1.21-1.1V53a1.16,1.16,0,0,1,1.21-1.11h60.31a1.16,1.16,0,0,1,1.2,1.11Zm0-14.68a1.16,1.16,0,0,1-1.2,1.11H92.83a1.16,1.16,0,0,1-1.21-1.11V38.32a1.16,1.16,0,0,1,1.21-1.1h60.31a1.15,1.15,0,0,1,1.2,1.1Z" id="路径_685"></path>
        <path fill="url(#linear-gradient-5)" opacity="0.4" d="M306.21,0H240.82a2.51,2.51,0,0,0-2.42,2.59V206.94a2.51,2.51,0,0,0,2.42,2.6h65.39a2.51,2.51,0,0,0,2.41-2.6V2.59A2.51,2.51,0,0,0,306.21,0Zm-5.82,134.28a1.06,1.06,0,0,1-1,1.1H247.67a1.06,1.06,0,0,1-1-1.1v-5.22a1.07,1.07,0,0,1,1-1.11h51.69a1.07,1.07,0,0,1,1,1.11Zm0-14.68a1.07,1.07,0,0,1-1,1.11H247.67a1.07,1.07,0,0,1-1-1.11v-5.22a1.06,1.06,0,0,1,1-1.1h51.69a1.06,1.06,0,0,1,1,1.1Zm0-14.68a1.07,1.07,0,0,1-1,1.11H247.67a1.07,1.07,0,0,1-1-1.11V99.71a1.07,1.07,0,0,1,1-1.11h51.69a1.07,1.07,0,0,1,1,1.11Zm0-14.67a1.06,1.06,0,0,1-1,1.1H247.67a1.06,1.06,0,0,1-1-1.1V85a1.07,1.07,0,0,1,1-1.11h51.69a1.07,1.07,0,0,1,1,1.11Zm0-14.68a1.07,1.07,0,0,1-1,1.11H247.67a1.07,1.07,0,0,1-1-1.11V70.35a1.06,1.06,0,0,1,1-1.1h51.69a1.06,1.06,0,0,1,1,1.1Zm0-14.68a1.07,1.07,0,0,1-1,1.11H247.67a1.07,1.07,0,0,1-1-1.11V55.68a1.07,1.07,0,0,1,1-1.11h51.69a1.07,1.07,0,0,1,1,1.11Zm0-14.67a1.06,1.06,0,0,1-1,1.1H247.67a1.06,1.06,0,0,1-1-1.1V41a1.07,1.07,0,0,1,1-1.11h51.69a1.07,1.07,0,0,1,1,1.11Zm0-14.68a1.07,1.07,0,0,1-1,1.11H247.67a1.07,1.07,0,0,1-1-1.11V26.32a1.06,1.06,0,0,1,1-1.1h51.69a1.06,1.06,0,0,1,1,1.1Zm0-14.68a1.07,1.07,0,0,1-1,1.11H247.67a1.07,1.07,0,0,1-1-1.11V11.65a1.07,1.07,0,0,1,1-1.11h51.69a1.07,1.07,0,0,1,1,1.11Z" id="路径_686"></path>
      </g>
      <path fill="#416889" d="M183.16,83.07a36,36,0,1,0,36,36,36,36,0,0,0-36-36Zm1.52,8.36a27.65,27.65,0,0,1,21.65,12.5l-10,5.75a16.19,16.19,0,0,0-11.69-6.75Zm-3,0v11.5A16.19,16.19,0,0,0,170,109.68l-10-5.75a27.68,27.68,0,0,1,21.64-12.5Zm-26.15,27.63a27.59,27.59,0,0,1,3-12.5l10,5.75a16.23,16.23,0,0,0,0,13.5l-10,5.75a27.59,27.59,0,0,1-3.04-12.5Zm26.15,27.63A27.68,27.68,0,0,1,160,134.19l10-5.75a16.19,16.19,0,0,0,11.69,6.75Zm0-19.76a8,8,0,0,1-4.53-2.62,8.23,8.23,0,0,1-1.52-2.63,8,8,0,0,1,0-5.24,8.23,8.23,0,0,1,1.52-2.63,8,8,0,0,1,4.53-2.61,7.78,7.78,0,0,1,3,0,8.012,8.012,0,0,1,0,15.73,8.419,8.419,0,0,1-1.52.14,8.51,8.51,0,0,1-1.52-.14Zm3,19.76v-11.5a16.19,16.19,0,0,0,11.69-6.75l10,5.75A27.65,27.65,0,0,1,184.68,146.69Zm23.17-15.13-10-5.75a16.23,16.23,0,0,0,0-13.5l10-5.75a27.71,27.71,0,0,1,0,25Z" id="路径_687"></path>
      <path fill="#416889" d="M152.32,151.4a46.158,46.158,0,0,0,4.35,3.65l5.59-6.66a36.174,36.174,0,0,1-4.35-3.66Z" id="路径_688"></path>
      <path fill="#416889" d="M165.24,160a45.838,45.838,0,0,0,5.34,1.94l3-8.18a35,35,0,0,1-5.34-1.94Z" id="路径_689"></path>
      <path fill="#416889" d="M147.31,122.5l-8.56,1.5a45.2,45.2,0,0,0,1,5.6l8.56-1.51a35.833,35.833,0,0,1-1-5.59Z" id="路径_690"></path>
      <path fill="#416889" d="M153.49,98.65,146,94.3a45.281,45.281,0,0,0-2.85,4.92l7.53,4.35a37.489,37.489,0,0,1,2.81-4.92Z" id="路径_691"></path>
      <path fill="#416889" d="M180.32,155v8.7c.94.06,1.89.09,2.84.09s1.9,0,2.84-.09V155c-.93.08-1.88.11-2.84.11S181.26,155,180.32,155Z" id="路径_692"></path>
      <path fill="#416889" d="M148.29,110l-8.56-1.51a44.55,44.55,0,0,0-1,5.6l8.56,1.51a35.42,35.42,0,0,1,1-5.6Z" id="路径_693"></path>
      <path fill="#416889" d="M219,115.63l8.57-1.51a44.552,44.552,0,0,0-1-5.6L218,110a35.421,35.421,0,0,1,1,5.63Z" id="路径_694"></path>
      <path fill="#416889" d="M192.77,153.77l3,8.18a46.519,46.519,0,0,0,5.34-1.94l-3-8.18a34.658,34.658,0,0,1-5.34,1.94Z" id="路径_695"></path>
      <path fill="#416889" d="M218,128.1l8.57,1.51a45.189,45.189,0,0,0,1-5.6L219,122.5A35.832,35.832,0,0,1,218,128.1Z" id="路径_696"></path>
      <path fill="#416889" d="M212.83,139.47l7.54,4.35a44.281,44.281,0,0,0,2.84-4.92l-7.53-4.35a34.8,34.8,0,0,1-2.85,4.92Z" id="路径_697"></path>
      <path fill="#416889" d="M204.06,148.39l5.59,6.66A46.163,46.163,0,0,0,214,151.4l-5.59-6.67A35.41,35.41,0,0,1,204.06,148.39Z" id="路径_698"></path>
      <path fill="#416889" d="M150.64,134.55l-7.53,4.35a44.35,44.35,0,0,0,2.85,4.92l7.53-4.35a36.852,36.852,0,0,1-2.85-4.92Z" id="路径_699"></path>
      <path fill="#416889" d="M201.09,78.12a44.754,44.754,0,0,0-5.34-2l-3,8.18a35.73,35.73,0,0,1,5.34,1.94Z" id="路径_700"></path>
      <path fill="#416889" d="M162.26,89.73l-5.59-6.66a44.791,44.791,0,0,0-4.35,3.66l5.59,6.66a37.118,37.118,0,0,1,4.35-3.66Z" id="路径_701"></path>
      <path fill="#416889" d="M214,86.73a44.789,44.789,0,0,0-4.35-3.66l-5.59,6.66a36.311,36.311,0,0,1,4.35,3.66Z" id="路径_702"></path>
      <path fill="#416889" d="M215.68,103.57l7.53-4.35a45.2,45.2,0,0,0-2.84-4.92l-7.54,4.35A35.369,35.369,0,0,1,215.68,103.57Z" id="路径_703"></path>
      <path fill="#416889" d="M173.55,84.35l-3-8.18a44.128,44.128,0,0,0-5.34,2l3,8.17a36.14,36.14,0,0,1,5.34-1.99Z" id="路径_704"></path>
      <path fill="#416889" d="M186,83.16v-8.7c-.94,0-1.88-.08-2.84-.08s-1.9,0-2.84.08v8.7c.94-.07,1.89-.11,2.84-.11S185.07,83.09,186,83.16Z" id="路径_705"></path>
      <path fill="#4a779b" d="M315,95.08c0-.78,0-1.56-.07-2.33l13.18-2.67a52.882,52.882,0,0,0-1.46-8.31l-13.3,2a38.877,38.877,0,0,0-1.59-4.39l11.47-7A52.225,52.225,0,0,0,319,65.07l-11.81,6.42a39.345,39.345,0,0,0-3-3.57l8.38-10.52a53.13,53.13,0,0,0-6.44-5.4l-8.9,10.07a40.343,40.343,0,0,0-4-2.33L297.46,47a51.908,51.908,0,0,0-7.92-2.89L284.62,56.6a38.618,38.618,0,0,0-4.59-.81l-.35-13.44c-1.39-.11-2.8-.16-4.21-.16s-2.83.05-4.22.16l-.35,13.44a38.619,38.619,0,0,0-4.59.81l-4.92-12.52A52.3,52.3,0,0,0,253.47,47l4.27,12.75a40.342,40.342,0,0,0-4,2.33L244.8,52a53.129,53.129,0,0,0-6.46,5.42l8.38,10.52a39.348,39.348,0,0,0-3,3.57l-11.81-6.42a52.22,52.22,0,0,0-4.23,7.29l11.47,7a38.886,38.886,0,0,0-1.59,4.39l-13.3-2a52.882,52.882,0,0,0-1.46,8.31L236,92.75c0,.77-.07,1.55-.07,2.33s0,1.56.07,2.33l-13.18,2.68a52.75,52.75,0,0,0,1.46,8.3l13.3-2a38.72,38.72,0,0,0,1.59,4.38l-11.47,7a52.921,52.921,0,0,0,4.23,7.3l11.81-6.42a39.354,39.354,0,0,0,3,3.57l-8.38,10.51a53.209,53.209,0,0,0,6.46,5.43l8.9-10.08a38.565,38.565,0,0,0,4,2.34l-4.27,12.75a52.27,52.27,0,0,0,7.92,2.88l4.92-12.51a40.739,40.739,0,0,0,4.59.8l.35,13.44c1.39.11,2.8.17,4.22.17s2.82-.06,4.21-.17l.35-13.44a40.738,40.738,0,0,0,4.59-.8l4.92,12.51a51.881,51.881,0,0,0,7.92-2.88l-4.27-12.75a38.573,38.573,0,0,0,4-2.34l8.9,10.08a53.211,53.211,0,0,0,6.46-5.43l-8.38-10.51a39.355,39.355,0,0,0,3-3.57L319,125.1a52.922,52.922,0,0,0,4.23-7.3l-11.47-7a38.724,38.724,0,0,0,1.59-4.38l13.3,2a52.749,52.749,0,0,0,1.46-8.3L315,97.41ZM275.47,109a13.92,13.92,0,1,1,13.92-13.92A13.92,13.92,0,0,1,275.47,109Z" id="路径_706"></path>
      <path fill="#395b77" d="M255.6,166.39l-2.67-1.56a1.87,1.87,0,0,1-.83-2.23,16.839,16.839,0,0,0,.56-2,1.89,1.89,0,0,1,1.87-1.51h3.08c0-.42.06-.85.07-1.27v-.73a9.5,9.5,0,0,0-.06-1.31h-3.1a1.88,1.88,0,0,1-1.83-1.52,18.516,18.516,0,0,0-.54-2.07,1.86,1.86,0,0,1,.85-2.22l2.69-1.54c-.18-.39-.38-.79-.59-1.17l-.36-.63c-.22-.37-.45-.73-.68-1.08L251.39,147a1.91,1.91,0,0,1-2.37-.41,17.8,17.8,0,0,0-1.5-1.51,1.88,1.88,0,0,1-.37-2.35l1.56-2.67c-.45-.31-.91-.61-1.4-.89s-1-.55-1.46-.79l-1.56,2.67a1.87,1.87,0,0,1-2.24.83,16.22,16.22,0,0,0-2-.56,1.9,1.9,0,0,1-1.52-1.87v-3.08c-.42,0-.85-.06-1.27-.07h-.73a11.65,11.65,0,0,0-1.32.05v3.1a1.88,1.88,0,0,1-1.52,1.83,16.618,16.618,0,0,0-2.07.55,1.88,1.88,0,0,1-2.22-.86l-1.54-2.69c-.4.18-.79.38-1.17.59l-.63.36q-.56.33-1.08.69l1.52,2.68a1.9,1.9,0,0,1-.4,2.37,16.327,16.327,0,0,0-1.51,1.49,1.88,1.88,0,0,1-2.35.37l-2.67-1.56c-.32.45-.61.92-.9,1.4h0c-.28.48-.54,1-.78,1.46l2.67,1.56a1.87,1.87,0,0,1,.83,2.24,16.365,16.365,0,0,0-.56,2.05,1.91,1.91,0,0,1-1.87,1.51h-3.08c0,.43-.06.85-.07,1.27v.73q0,.66.06,1.32h3.1a1.87,1.87,0,0,1,1.83,1.52,17.8,17.8,0,0,0,.54,2.06,1.88,1.88,0,0,1-.85,2.23l-2.69,1.53c.18.4.38.79.59,1.18l.36.63c.22.36.45.72.68,1.07l2.68-1.52a1.89,1.89,0,0,1,2.37.4,16.44,16.44,0,0,0,1.5,1.51,1.88,1.88,0,0,1,.37,2.35l-1.56,2.67c.45.32.91.62,1.4.9s1,.54,1.46.78l1.56-2.67a1.89,1.89,0,0,1,2.24-.83,15.071,15.071,0,0,0,2,.56,1.91,1.91,0,0,1,1.52,1.87v3.09c.42,0,.85.06,1.27.07H237a9.722,9.722,0,0,0,1.32-.06v-3.09a1.88,1.88,0,0,1,1.52-1.84,16.569,16.569,0,0,0,2.07-.54,1.9,1.9,0,0,1,2.23.85l1.53,2.7q.6-.28,1.17-.6l.63-.36c.37-.22.73-.44,1.08-.68L247,171.93a1.89,1.89,0,0,1,.4-2.37,15.262,15.262,0,0,0,1.51-1.5,1.88,1.88,0,0,1,2.35-.37l2.67,1.57c.32-.46.61-.92.9-1.4h0C255.1,167.37,255.36,166.89,255.6,166.39ZM241,150.18a1.4,1.4,0,1,1,1.81-.47,1.4,1.4,0,0,1-1.81.47Zm-3,7.73a1.4,1.4,0,1,1-.47-1.8,1.4,1.4,0,0,1,.47,1.8Zm-11.54.59a3.716,3.716,0,1,0-.03,0Zm3.1-5.44a4.81,4.81,0,1,1,6.59-1.72,4.87,4.87,0,0,1-6.62,1.72Zm-.09,16.77a13.13,13.13,0,1,1-.03,0ZM240.93,167a1.39,1.39,0,1,1,1.8-.47A1.39,1.39,0,0,1,240.93,167Zm3.12-5.47a4.82,4.82,0,0,1-1.73-6.59,4.88,4.88,0,0,1,6.59-1.73,4.82,4.82,0,0,1-4.86,8.32Z" id="路径_707"></path>
      <path fill="#6ba2cb" d="M318.66,225.37l.99,3.37-16.7,1.08-.86-3.22Z" id="路径_708"></path>
      <path fill="#6ba2cb" d="M313.14,206.61l1.06,3.61H297.71l-.97-3.61Z" id="路径_709"></path>
      <path fill="#6ba2cb" d="M308.26,190l.8,2.72-16.38-1.33-.75-2.79Z" id="路径_710"></path>
      <path fill="#6ba2cb" d="M303.44,173.61l.82,2.79-16.24-2.41-.76-2.86Z" id="路径_711"></path>
      <path fill="#6ba2cb" d="M299.11,158.87l.9,3.06-16.16-3.53-.64-2.4Z" id="路径_712"></path>
      <path fill="#6ba2cb" d="M295.05,145.06l.93,3.19-15.92-4.04-.6-2.22Z" id="路径_713"></path>
      <path fill="#679ac0" d="M290.44,120.62l35.01,115.22h-3.71l-2.09-7.1-.99-3.37-4.46-15.15-1.06-3.61-4.08-13.89-.8-2.72-4-13.6-.82-2.79-3.43-11.68-.9-3.06-3.13-10.62-.93-3.19-3.01-10.24-.58-1.98-3.6-12.22Z" id="路径_714"></path>
      <path fill="#6ba2cb" d="M291.46,132.84l.58,1.98L276.5,130.9h0l-.65-2.42Z" id="路径_715"></path>
      <path fill="#6ea9d3" d="M297.71,210.22l4.38,16.38.86,3.22,1.61,6.02h-3.71L271.17,120.62h2.58l2.1,7.86.65,2.42h0l2.96,11.09.6,2.22L283.21,156l.64,2.4,3.41,12.73.76,2.86,3.91,14.61.75,2.79,4.06,15.22Z" id="路径_716"></path>
      <path fill="#ffb056" d="M321.9,225.09c.37.56,1.1,1.95.75,2.94h0a1.46,1.46,0,0,1-.9.87c-1.84.73-3.15,1.16-3.81-.17a4.4,4.4,0,0,0-2.05-2.32c-1-.63-3.84-.21-4.13-.54a1.84,1.84,0,0,1-.42-1.4,2.47,2.47,0,0,1,.3-1,2.413,2.413,0,0,1,3.65-1.75l.19.64.3-.07c.16.19.53.21.7.83s.91,1,1.25.64.06-.79.38-.89a13.054,13.054,0,0,1,1.88-.2l1.13-.08a9.32,9.32,0,0,0,.78,2.5Z" id="路径_717"></path>
      <path fill="#ebfcff" d="M317.94,228.74c.66,1.33,2,.9,3.81.17a1.46,1.46,0,0,0,.9-.87c-.1.66-.26,1.2-.82,1.45a7.12,7.12,0,0,1-3.63.33c-.82-.34-1.24-1.18-1.94-2.06a4,4,0,0,0-2.35-1.34c-.42,0-2.18.24-2.72-.09s0-1.26.14-1.85h0a1.84,1.84,0,0,0,.42,1.4c.29.33,3.11-.09,4.13.54a4.4,4.4,0,0,1,2.06,2.32Z" id="路径_718"></path>
      <path fill="#ebfcff" d="M304.09,210.39a2.37,2.37,0,0,1-2.4-.89c-.53-.48-1.95-2.78-2.57-3s-.6,0-1.3.14-.42-.37-.43-1a2.86,2.86,0,0,0,0,.3c.09.29.38.49,1,0s.91-.58,1.43-.13,2.26,3.41,3.14,3.94,1.9,0,3.09-.77c.75-.52.94-1,.9-1.49a2.56,2.56,0,0,1-.2,1.69,6.74,6.74,0,0,1-2.66,1.21Z" id="路径_719"></path>
      <path fill="#ffb056" d="M298.38,205.9c-.58.54-.87.34-1,0a2.877,2.877,0,0,1,0-.3c-.05-.85.13-3.07,2.28-3l1,2.15.73-.34.28.61a1.39,1.39,0,0,1,1.46-.08c0-.55-.13-1-.14-1.29a.56.56,0,0,1,.09-.4,5.921,5.921,0,0,1,1.28-.77h0a1.69,1.69,0,0,1,.72-.22c.37.59.34,1.78.74,2s.6,1.21.87,2.15a4.519,4.519,0,0,1,.21.93h0a1.637,1.637,0,0,1-.9,1.49c-1.19.81-2.2,1.31-3.09.77s-2.62-3.5-3.14-3.94S299,205.36,298.38,205.9Z" id="路径_720"></path>
      <path fill="#395b77" d="M315.29,221.75l-6.23-21.43-1.32-16.31,7.78-3.46-.31,19.77,4.44,21.18-3.87.82-.3.07Z" id="路径_721"></path>
      <path fill="#4a779b" d="M315,175l.52,5.55a2,2,0,0,1-1.58,2.15l-6.2,1.31-9.05,1.91,5.71,16.65h0a5.92,5.92,0,0,0-1.28.77.56.56,0,0,0-.09.4l-1.6.76-.73.34-1-2.15-8.86-18.49a1.71,1.71,0,0,1,.77-2.36l13.82-6.65.11-1C307.05,175,309.88,175.74,315,175Z" id="路径_722"></path>
      <path fill="#e49056" d="M310.63,148c1.28-.16,3.5,2.18,3.34,5.77h0a21,21,0,0,0-3.34-5.77Z" id="路径_723"></path>
      <path fill="#ffbf76" d="M309.21,151.24c3,4.95-.18,5.31-2.06,5.92a35,35,0,0,1-4.08.45l-2.17.15-.42-2.45-.85-4.88a25.9,25.9,0,0,1,4.82-.6C306.39,149.79,308.37,150.08,309.21,151.24Z" id="路径_724"></path>
      <path fill="#ffb056" d="M309.21,151.24c-.84-1.16-2.82-1.45-4.76-1.41l.13-.42h0a6.12,6.12,0,0,0,5.18-1.62l.39-.35s.17.19.46.55a21,21,0,0,1,3.34,5.77,13.81,13.81,0,0,1,.75,3.12,117.363,117.363,0,0,1,1,18l-.7.12c-5.12.74-7.95,0-9.49-.85a3.67,3.67,0,0,1-1.76-1.78l-.13-2.94-.31-6.58-.24-5.17v-.07a35,35,0,0,0,4.08-.45C309,156.55,312.23,156.19,309.21,151.24Z" id="路径_725"></path>
      <path fill="#f0dabc" d="M320,222.7h0c-.78.06-1.68.15-1.88.2s-.15.49-.38.89-1.08,0-1.25-.64-.54-.64-.7-.83l3.87-.82Z" id="路径_726"></path>
      <path fill="#f0dabc" d="M301.43,204.5l1.6-.76c0,.31.13.74.14,1.29a1.39,1.39,0,0,0-1.46.08Z" id="路径_727"></path>
      <path fill="#ffeed2" d="M299.63,150.43l.85,4.88-6.91-1.52L284.11,144c-.56-1.1-2.48-1.8-3.41-2-.48-3.37,4.61-2.59,5.1-2.32s.1,1.73.11,2.32l8.8,8.1Z" id="路径_728"></path>
      <path fill="#fae6d2" d="M303.31,162.85l.31,6.58s-5-7.55-5.38-8c-.62.21-1.25-.15-2.17-.59s-1.7-.31-1.7-1.2c0-.47.87-.33,1.38-.1a6.38,6.38,0,0,0-1.54-1.64c.24-1.49,3.44-2,4.77-1.24a7.421,7.421,0,0,0,.76,3C299.87,160.2,303.31,162.85,303.31,162.85Z" id="路径_729"></path>
      <path fill="#ffeed2" d="M308.34,144.67a5.4,5.4,0,0,0,1.11,2.78l.33.35a6.12,6.12,0,0,1-5.18,1.62h0l.43-1.26c.4-.17-.13-1.36-.45-1.83a1.321,1.321,0,0,0,.48-.06,4.74,4.74,0,0,0,3-1.62Z" id="路径_730"></path>
      <path fill="#ffeed2" d="M305,146.26c-.16,0-.32.05-.48.06a4.08,4.08,0,0,1-1.39-.06,3,3,0,0,1-2.16-2.52c-.34-.49-1-.2-1-.93.06-.89,1.13-1.23,1.28-2.88a4.18,4.18,0,0,1,3.8-3.33c2.21,0,4,2.21,4,4.94a4.47,4.47,0,0,1-4,4.72Z" id="路径_731"></path>
      <path stroke-width="0.12" stroke-miterlimit="10" stroke="#4986d9" fill="none" d="M297.39,205.65c0,.64-.27,1.14.43,1s.69-.35,1.3-.14,2,2.5,2.57,3a2.37,2.37,0,0,0,2.4.89,6.74,6.74,0,0,0,2.65-1.25,2.56,2.56,0,0,0,.2-1.69h0" id="路径_732"></path>
      <path stroke-width="0.12" stroke-miterlimit="10" stroke="#4986d9" fill="none" d="M311.33,224.48c-.13.59-.68,1.52-.14,1.85s2.3,0,2.72.09a4,4,0,0,1,2.35,1.34c.7.88,1.12,1.72,1.94,2.06a7.12,7.12,0,0,0,3.63-.33c.56-.25.72-.79.82-1.45h0" id="路径_733"></path>
      <path d="M300.9,138.55c-.08.49-.21,1.21.34,1.41,1,.46,1.79-.42,2.31-.21s1,.24,1,.72.84,1.08.82,1.31a1,1,0,0,0,.15.79c.28.53.76.3,1.17.73s.23.73.47.81.66,0,.78.1.09.64.66.49.64-.64.72-1.14,1-.9,1.32-1.23,2.05-1.75.83-4.89a4.68,4.68,0,0,0-6-2.76,3,3,0,0,0-2.94-.29c-1.38.92-.87,2.11-1.39,2.55s-.69.25-1.15.09-.79-.1-.88.16a1,1,0,0,0,.23,1.2A1.27,1.27,0,0,0,300.9,138.55Z" id="路径_734"></path>
      <ellipse fill="#ffeed2" transform="translate(304.366 142.577) rotate(-82.77)" ry="0.94" rx="1.37" cy="0.94" cx="1.37" id="椭圆_89"></ellipse>
      <ellipse fill="#ffeed2" transform="translate(304.617 140.433) rotate(-12.47)" ry="1.17" rx="0.61" cy="1.17" cx="0.61" id="椭圆_90"></ellipse>
      <ellipse opacity="0.2" fill="#e55c5c" transform="translate(304.965 140.847) rotate(-12.47)" ry="0.69" rx="0.36" cy="0.69" cx="0.36" id="椭圆_91"></ellipse>
      <path fill="#e49056" d="M310.17,147.45a4.24,4.24,0,0,0-.72,0l.33.35Z" id="路径_735"></path>
    </g>
  </g>
</svg>
