<svg xmlns="http://www.w3.org/2000/svg" width="824.649" height="977.574" viewBox="0 0 824.649 977.574">
  <path id="路径_24" data-name="路径 24" d="M906.809,38.117a44.862,44.862,0,0,0-45.019-6.234L660.836,108.046a406.07,406.07,0,0,0-300.894-.94L162.269,32.567a45.131,45.131,0,0,0-45.076,6.205c-13.187,10.113-19.364,25.076-17.035,41.333l29.209,271.213a382.355,382.355,0,0,0-18.407,117.408c0,9.384.477,18.645,1.135,27.863h73.12c2.984-65.1,57.668-117.019,124.852-117.019,69.122,0,125.147,54.893,125.147,122.583,0,67.707-56.025,122.6-125.147,122.6-65.276,0-118.825-48.972-124.584-111.442h-71.84c22.583,194.406,190.99,345.465,395.524,345.465,204.505,0,372.91-151.058,395.524-345.465H827.126c-5.759,62.47-59.277,111.442-124.553,111.442-69.122,0-125.149-54.893-125.149-122.6,0-67.69,56.025-122.583,125.149-122.583,67.185,0,121.838,51.923,124.85,117.019h78.789c.686-9.218,1.135-18.481,1.135-27.863A382.716,382.716,0,0,0,893.2,365.714L923.843,79.631c2.329-16.316-3.848-31.353-17.033-41.513ZM702.572,407.435c-53.43,0-96.719,42.408-96.719,94.72s43.286,94.734,96.719,94.734c53.4,0,96.688-42.408,96.688-94.734S755.974,407.435,702.572,407.435ZM310.061,596.89c53.4,0,96.686-42.408,96.686-94.734s-43.286-94.72-96.686-94.72-96.721,42.408-96.721,94.72S256.659,596.89,310.061,596.89ZM458,912.432,330.854,839.669a11.233,11.233,0,0,0-11.366,0,10.8,10.8,0,0,0-5.7,9.65V994.858a10.812,10.812,0,0,0,5.7,9.65,11.3,11.3,0,0,0,11.366,0L458,931.73a11.047,11.047,0,0,0,0-19.3Zm56.832-31.367c-21.987,0-39.8,17.467-39.8,39.006s17.809,39.006,39.8,39.006,39.825-17.467,39.825-39.006S536.821,881.065,514.834,881.065Zm187.8-42.975a11.026,11.026,0,0,0-11.217,0L565.936,910.478a11,11,0,0,0,0,19.212l125.479,72.391a11.026,11.026,0,0,0,11.217,0,10.806,10.806,0,0,0,5.638-9.605V847.7a10.805,10.805,0,0,0-5.638-9.607Z" transform="translate(-99.675 -28.467)" fill="#395b77"/>
</svg>
