<svg xmlns="http://www.w3.org/2000/svg" xmlns:xlink="http://www.w3.org/1999/xlink" width="359.07" height="262.12" viewBox="0 0 359.07 262.12">
  <defs>
    <linearGradient id="linear-gradient" x1="0.5" x2="0.5" y2="1" gradientUnits="objectBoundingBox">
      <stop offset="0" stop-color="#428fce"/>
      <stop offset="1" stop-color="#5ecfff" stop-opacity="0"/>
    </linearGradient>
    <linearGradient id="linear-gradient-2" x1="0.5" x2="0.5" y2="1" gradientUnits="objectBoundingBox">
      <stop offset="0" stop-color="#59ace9"/>
      <stop offset="1" stop-color="#5ecfff" stop-opacity="0"/>
    </linearGradient>
    <linearGradient id="linear-gradient-3" x1="0.5" y1="0" x2="0.5" y2="1" xlink:href="#linear-gradient-2"/>
    <linearGradient id="linear-gradient-4" x1="0.5" y1="0" x2="0.5" y2="1" xlink:href="#linear-gradient-2"/>
    <linearGradient id="linear-gradient-5" x1="0.5" y1="0" x2="0.5" y2="1" xlink:href="#linear-gradient-2"/>
    <radialGradient id="radial-gradient" cx="0.638" cy="0.656" r="0.483" gradientTransform="matrix(0.765, 0.707, 0.453, -0.418, 11.289, -33.986)" gradientUnits="objectBoundingBox">
      <stop offset="0" stop-color="#5c87aa"/>
      <stop offset="0.53" stop-color="#6192b8"/>
      <stop offset="0.83" stop-color="#6a9dc4"/>
      <stop offset="1" stop-color="#6ea9d3"/>
    </radialGradient>
  </defs>
  <g id="图层_2" data-name="图层 2" transform="translate(-53.21)">
    <g id="图层_1" data-name="图层 1">
      <path id="路径_633" data-name="路径 633" d="M412.28,262.12c-23-23-61-37.69-179.53-37.69S76.24,239.1,53.21,262.12Z" opacity="0.4" fill="url(#linear-gradient)"/>
      <g id="组_533" data-name="组 533" opacity="0.7">
        <path id="路径_634" data-name="路径 634" d="M380.66,26.68H318.07a2.71,2.71,0,0,0-2.82,2.59V201.44a2.71,2.71,0,0,0,2.82,2.59h62.59a2.72,2.72,0,0,0,2.82-2.59V29.27a2.72,2.72,0,0,0-2.82-2.59ZM328.3,147a.9.9,0,0,1-.95.87h-3.6a.9.9,0,0,1-.95-.87V127.27a.91.91,0,0,1,.95-.87h3.6a.91.91,0,0,1,.95.87Zm0-30.23a.91.91,0,0,1-.95.87h-3.6a.91.91,0,0,1-.95-.87V97a.91.91,0,0,1,.95-.87h3.6a.91.91,0,0,1,.95.87Zm0-30.24a.91.91,0,0,1-.95.87h-3.6a.91.91,0,0,1-.95-.87V66.8a.91.91,0,0,1,.95-.87h3.6a.91.91,0,0,1,.95.87Zm0-30.24a.91.91,0,0,1-.95.87h-3.6a.91.91,0,0,1-.95-.87V36.56a.91.91,0,0,1,.95-.87h3.6a.91.91,0,0,1,.95.87ZM340,147a.9.9,0,0,1-.94.87h-3.61a.91.91,0,0,1-.95-.87V127.27a.92.92,0,0,1,.95-.87h3.61a.91.91,0,0,1,.94.87Zm0-30.23a.91.91,0,0,1-.94.87h-3.61a.92.92,0,0,1-.95-.87V97a.92.92,0,0,1,.95-.87h3.61A.91.91,0,0,1,340,97Zm0-30.24a.91.91,0,0,1-.94.87h-3.61a.92.92,0,0,1-.95-.87V66.8a.92.92,0,0,1,.95-.87h3.61a.91.91,0,0,1,.94.87Zm0-30.24a.91.91,0,0,1-.94.87h-3.61a.92.92,0,0,1-.95-.87V36.56a.92.92,0,0,1,.95-.87h3.61a.91.91,0,0,1,.94.87ZM351.7,147a.9.9,0,0,1-.94.87h-3.61a.9.9,0,0,1-.94-.87V127.27a.91.91,0,0,1,.94-.87h3.61a.91.91,0,0,1,.94.87Zm0-30.23a.91.91,0,0,1-.94.87h-3.61a.91.91,0,0,1-.94-.87V97a.91.91,0,0,1,.94-.87h3.61a.91.91,0,0,1,.94.87Zm0-30.24a.91.91,0,0,1-.94.87h-3.61a.91.91,0,0,1-.94-.87V66.8a.91.91,0,0,1,.94-.87h3.61a.91.91,0,0,1,.94.87Zm0-30.24a.91.91,0,0,1-.94.87h-3.61a.91.91,0,0,1-.94-.87V36.56a.91.91,0,0,1,.94-.87h3.61a.91.91,0,0,1,.94.87ZM363.4,147a.9.9,0,0,1-.94.87h-3.61a.9.9,0,0,1-.94-.87V127.27a.91.91,0,0,1,.94-.87h3.61a.91.91,0,0,1,.94.87Zm0-30.23a.91.91,0,0,1-.94.87h-3.61a.91.91,0,0,1-.94-.87V97a.91.91,0,0,1,.94-.87h3.61a.91.91,0,0,1,.94.87Zm0-30.24a.91.91,0,0,1-.94.87h-3.61a.91.91,0,0,1-.94-.87V66.8a.91.91,0,0,1,.94-.87h3.61a.91.91,0,0,1,.94.87Zm0-30.24a.91.91,0,0,1-.94.87h-3.61a.91.91,0,0,1-.94-.87V36.56a.91.91,0,0,1,.94-.87h3.61a.91.91,0,0,1,.94.87ZM375.11,147a.91.91,0,0,1-.95.87h-3.61a.9.9,0,0,1-.94-.87V127.27a.91.91,0,0,1,.94-.87h3.61a.92.92,0,0,1,.95.87Zm0-30.23a.92.92,0,0,1-.95.87h-3.61a.91.91,0,0,1-.94-.87V97a.91.91,0,0,1,.94-.87h3.61a.92.92,0,0,1,.95.87Zm0-30.24a.92.92,0,0,1-.95.87h-3.61a.91.91,0,0,1-.94-.87V66.8a.91.91,0,0,1,.94-.87h3.61a.92.92,0,0,1,.95.87Zm0-30.24a.92.92,0,0,1-.95.87h-3.61a.91.91,0,0,1-.94-.87V36.56a.91.91,0,0,1,.94-.87h3.61a.92.92,0,0,1,.95.87Z" opacity="0.4" fill="url(#linear-gradient-2)"/>
        <path id="路径_635" data-name="路径 635" d="M231.1,55.61H171.8A2.71,2.71,0,0,0,169,58.2V201.44a2.71,2.71,0,0,0,2.8,2.56h59.3a2.71,2.71,0,0,0,2.82-2.59V58.2a2.71,2.71,0,0,0-2.82-2.59ZM182.47,159.37a1.16,1.16,0,0,1-1.2,1.11h-5.4a1.16,1.16,0,0,1-1.2-1.11v-5.22a1.15,1.15,0,0,1,1.2-1.1h5.4a1.15,1.15,0,0,1,1.2,1.1Zm0-12.88a1.15,1.15,0,0,1-1.2,1.1h-5.4a1.15,1.15,0,0,1-1.2-1.1v-5.22a1.16,1.16,0,0,1,1.2-1.11h5.4a1.16,1.16,0,0,1,1.2,1.11Zm0-12.89a1.16,1.16,0,0,1-1.2,1.11h-5.4a1.16,1.16,0,0,1-1.2-1.11v-5.22a1.15,1.15,0,0,1,1.2-1.1h5.4a1.15,1.15,0,0,1,1.2,1.1Zm0-12.88a1.15,1.15,0,0,1-1.2,1.1h-5.4a1.15,1.15,0,0,1-1.2-1.1V115.5a1.16,1.16,0,0,1,1.2-1.11h5.4a1.16,1.16,0,0,1,1.2,1.11Zm0-12.89a1.16,1.16,0,0,1-1.2,1.11h-5.4a1.16,1.16,0,0,1-1.2-1.11v-5.21a1.15,1.15,0,0,1,1.2-1.11h5.4a1.15,1.15,0,0,1,1.2,1.11Zm0-12.88a1.15,1.15,0,0,1-1.2,1.1h-5.4a1.15,1.15,0,0,1-1.2-1.1V89.73a1.16,1.16,0,0,1,1.2-1.11h5.4a1.16,1.16,0,0,1,1.2,1.11Zm0-12.89a1.16,1.16,0,0,1-1.2,1.11h-5.4a1.16,1.16,0,0,1-1.2-1.11V76.85a1.15,1.15,0,0,1,1.2-1.11h5.4a1.15,1.15,0,0,1,1.2,1.11Zm0-12.88a1.15,1.15,0,0,1-1.2,1.1h-5.4a1.15,1.15,0,0,1-1.2-1.1V64a1.16,1.16,0,0,1,1.2-1.11h5.4a1.16,1.16,0,0,1,1.2,1.11Zm10.08,90.19a1.16,1.16,0,0,1-1.2,1.11H186a1.16,1.16,0,0,1-1.21-1.11v-5.22a1.16,1.16,0,0,1,1.21-1.1h5.4a1.15,1.15,0,0,1,1.2,1.1Zm0-12.88a1.15,1.15,0,0,1-1.2,1.1H186a1.16,1.16,0,0,1-1.21-1.1v-5.22a1.16,1.16,0,0,1,1.21-1.11h5.4a1.16,1.16,0,0,1,1.2,1.11Zm0-12.89a1.16,1.16,0,0,1-1.2,1.11H186a1.16,1.16,0,0,1-1.21-1.11v-5.22a1.16,1.16,0,0,1,1.21-1.1h5.4a1.15,1.15,0,0,1,1.2,1.1Zm0-12.88a1.15,1.15,0,0,1-1.2,1.1H186a1.16,1.16,0,0,1-1.21-1.1V115.5a1.16,1.16,0,0,1,1.21-1.11h5.4a1.16,1.16,0,0,1,1.2,1.11Zm0-12.89a1.16,1.16,0,0,1-1.2,1.11H186a1.16,1.16,0,0,1-1.21-1.11v-5.21a1.16,1.16,0,0,1,1.21-1.11h5.4a1.15,1.15,0,0,1,1.2,1.11Zm0-12.88a1.15,1.15,0,0,1-1.2,1.1H186a1.16,1.16,0,0,1-1.21-1.1V89.73A1.16,1.16,0,0,1,186,88.62h5.4a1.16,1.16,0,0,1,1.2,1.11Zm0-12.89a1.16,1.16,0,0,1-1.2,1.11H186a1.16,1.16,0,0,1-1.21-1.11V76.85A1.16,1.16,0,0,1,186,75.74h5.4a1.15,1.15,0,0,1,1.2,1.11Zm0-12.88a1.15,1.15,0,0,1-1.2,1.1H186a1.16,1.16,0,0,1-1.21-1.1V64A1.16,1.16,0,0,1,186,62.85h5.4a1.16,1.16,0,0,1,1.2,1.11Zm10.08,90.19a1.16,1.16,0,0,1-1.21,1.11H196a1.16,1.16,0,0,1-1.2-1.11v-5.22a1.15,1.15,0,0,1,1.2-1.1h5.4a1.16,1.16,0,0,1,1.21,1.1Zm0-12.88a1.16,1.16,0,0,1-1.21,1.1H196a1.15,1.15,0,0,1-1.2-1.1v-5.22a1.16,1.16,0,0,1,1.2-1.11h5.4a1.16,1.16,0,0,1,1.21,1.11Zm0-12.89a1.16,1.16,0,0,1-1.21,1.11H196a1.16,1.16,0,0,1-1.2-1.11v-5.22a1.15,1.15,0,0,1,1.2-1.1h5.4a1.16,1.16,0,0,1,1.21,1.1Zm0-12.88a1.16,1.16,0,0,1-1.21,1.1H196a1.15,1.15,0,0,1-1.2-1.1V115.5a1.16,1.16,0,0,1,1.2-1.11h5.4a1.16,1.16,0,0,1,1.21,1.11Zm0-12.89a1.16,1.16,0,0,1-1.21,1.11H196a1.16,1.16,0,0,1-1.2-1.11v-5.21a1.15,1.15,0,0,1,1.2-1.11h5.4a1.16,1.16,0,0,1,1.21,1.11Zm0-12.88a1.16,1.16,0,0,1-1.21,1.1H196a1.15,1.15,0,0,1-1.2-1.1V89.73a1.16,1.16,0,0,1,1.2-1.11h5.4a1.16,1.16,0,0,1,1.21,1.11Zm0-12.89a1.16,1.16,0,0,1-1.21,1.11H196a1.16,1.16,0,0,1-1.2-1.11V76.85a1.15,1.15,0,0,1,1.2-1.11h5.4a1.16,1.16,0,0,1,1.21,1.11Zm0-12.88a1.16,1.16,0,0,1-1.21,1.1H196a1.15,1.15,0,0,1-1.2-1.1V64a1.16,1.16,0,0,1,1.2-1.11h5.4A1.16,1.16,0,0,1,202.63,64Zm25.21,90.19a1.16,1.16,0,0,1-1.2,1.11H206.1a1.16,1.16,0,0,1-1.2-1.11v-5.22a1.15,1.15,0,0,1,1.2-1.1h20.54a1.15,1.15,0,0,1,1.2,1.1Zm0-12.88a1.15,1.15,0,0,1-1.2,1.1H206.1a1.15,1.15,0,0,1-1.2-1.1v-5.22a1.16,1.16,0,0,1,1.2-1.11h20.54a1.16,1.16,0,0,1,1.2,1.11Zm0-12.89a1.16,1.16,0,0,1-1.2,1.11H206.1a1.16,1.16,0,0,1-1.2-1.11v-5.22a1.15,1.15,0,0,1,1.2-1.1h20.54a1.15,1.15,0,0,1,1.2,1.1Zm0-12.88a1.15,1.15,0,0,1-1.2,1.1H206.1a1.15,1.15,0,0,1-1.2-1.1V115.5a1.16,1.16,0,0,1,1.2-1.11h20.54a1.16,1.16,0,0,1,1.2,1.11Zm0-12.89a1.16,1.16,0,0,1-1.2,1.11H206.1a1.16,1.16,0,0,1-1.2-1.11v-5.21a1.15,1.15,0,0,1,1.2-1.11h20.54a1.15,1.15,0,0,1,1.2,1.11Zm0-12.88a1.15,1.15,0,0,1-1.2,1.1H206.1a1.15,1.15,0,0,1-1.2-1.1V89.73a1.16,1.16,0,0,1,1.2-1.11h20.54a1.16,1.16,0,0,1,1.2,1.11Zm0-12.89a1.16,1.16,0,0,1-1.2,1.11H206.1a1.16,1.16,0,0,1-1.2-1.11V76.85a1.15,1.15,0,0,1,1.2-1.11h20.54a1.15,1.15,0,0,1,1.2,1.11Zm0-12.88a1.15,1.15,0,0,1-1.2,1.1H206.1a1.15,1.15,0,0,1-1.2-1.1V64a1.16,1.16,0,0,1,1.2-1.11h20.54a1.16,1.16,0,0,1,1.2,1.11Z" opacity="0.4" fill="url(#linear-gradient-3)"/>
        <path id="路径_636" data-name="路径 636" d="M161.13,26.68H84.83A2.71,2.71,0,0,0,82,29.27V201.44A2.71,2.71,0,0,0,84.83,204h76.3a2.71,2.71,0,0,0,2.82-2.59V29.27A2.71,2.71,0,0,0,161.13,26.68ZM154.34,161a1.16,1.16,0,0,1-1.2,1.11H92.83A1.16,1.16,0,0,1,91.62,161v-5.21a1.16,1.16,0,0,1,1.21-1.11h60.31a1.15,1.15,0,0,1,1.2,1.11Zm0-14.67a1.15,1.15,0,0,1-1.2,1.1H92.83a1.16,1.16,0,0,1-1.21-1.1v-5.22A1.16,1.16,0,0,1,92.83,140h60.31a1.16,1.16,0,0,1,1.2,1.11Zm0-14.68a1.16,1.16,0,0,1-1.2,1.11H92.83a1.16,1.16,0,0,1-1.21-1.11v-5.22a1.16,1.16,0,0,1,1.21-1.1h60.31a1.15,1.15,0,0,1,1.2,1.1Zm0-14.68a1.16,1.16,0,0,1-1.2,1.11H92.83a1.16,1.16,0,0,1-1.21-1.11v-5.21a1.16,1.16,0,0,1,1.21-1.11h60.31a1.15,1.15,0,0,1,1.2,1.11Zm0-14.67a1.15,1.15,0,0,1-1.2,1.1H92.83a1.16,1.16,0,0,1-1.21-1.1V97a1.16,1.16,0,0,1,1.21-1.11h60.31a1.16,1.16,0,0,1,1.2,1.11Zm0-14.68a1.16,1.16,0,0,1-1.2,1.11H92.83a1.16,1.16,0,0,1-1.21-1.11V82.35a1.16,1.16,0,0,1,1.21-1.1h60.31a1.15,1.15,0,0,1,1.2,1.1Zm0-14.68a1.16,1.16,0,0,1-1.2,1.11H92.83a1.16,1.16,0,0,1-1.21-1.11V67.68a1.16,1.16,0,0,1,1.21-1.11h60.31a1.15,1.15,0,0,1,1.2,1.11Zm0-14.67a1.15,1.15,0,0,1-1.2,1.1H92.83a1.16,1.16,0,0,1-1.21-1.1V53a1.16,1.16,0,0,1,1.21-1.11h60.31a1.16,1.16,0,0,1,1.2,1.11Zm0-14.68a1.16,1.16,0,0,1-1.2,1.11H92.83a1.16,1.16,0,0,1-1.21-1.11V38.32a1.16,1.16,0,0,1,1.21-1.1h60.31a1.15,1.15,0,0,1,1.2,1.1Z" opacity="0.4" fill="url(#linear-gradient-4)"/>
        <path id="路径_637" data-name="路径 637" d="M306.21,0H240.82a2.51,2.51,0,0,0-2.42,2.59V206.94a2.51,2.51,0,0,0,2.42,2.6h65.39a2.51,2.51,0,0,0,2.41-2.6V2.59A2.51,2.51,0,0,0,306.21,0Zm-5.82,134.28a1.06,1.06,0,0,1-1,1.1H247.67a1.06,1.06,0,0,1-1-1.1v-5.22a1.07,1.07,0,0,1,1-1.11h51.69a1.07,1.07,0,0,1,1,1.11Zm0-14.68a1.07,1.07,0,0,1-1,1.11H247.67a1.07,1.07,0,0,1-1-1.11v-5.22a1.06,1.06,0,0,1,1-1.1h51.69a1.06,1.06,0,0,1,1,1.1Zm0-14.68a1.07,1.07,0,0,1-1,1.11H247.67a1.07,1.07,0,0,1-1-1.11V99.71a1.07,1.07,0,0,1,1-1.11h51.69a1.07,1.07,0,0,1,1,1.11Zm0-14.67a1.06,1.06,0,0,1-1,1.1H247.67a1.06,1.06,0,0,1-1-1.1V85a1.07,1.07,0,0,1,1-1.11h51.69a1.07,1.07,0,0,1,1,1.11Zm0-14.68a1.07,1.07,0,0,1-1,1.11H247.67a1.07,1.07,0,0,1-1-1.11V70.35a1.06,1.06,0,0,1,1-1.1h51.69a1.06,1.06,0,0,1,1,1.1Zm0-14.68a1.07,1.07,0,0,1-1,1.11H247.67a1.07,1.07,0,0,1-1-1.11V55.68a1.07,1.07,0,0,1,1-1.11h51.69a1.07,1.07,0,0,1,1,1.11Zm0-14.67a1.06,1.06,0,0,1-1,1.1H247.67a1.06,1.06,0,0,1-1-1.1V41a1.07,1.07,0,0,1,1-1.11h51.69a1.07,1.07,0,0,1,1,1.11Zm0-14.68a1.07,1.07,0,0,1-1,1.11H247.67a1.07,1.07,0,0,1-1-1.11V26.32a1.06,1.06,0,0,1,1-1.1h51.69a1.06,1.06,0,0,1,1,1.1Zm0-14.68a1.07,1.07,0,0,1-1,1.11H247.67a1.07,1.07,0,0,1-1-1.11V11.65a1.07,1.07,0,0,1,1-1.11h51.69a1.07,1.07,0,0,1,1,1.11Z" opacity="0.4" fill="url(#linear-gradient-5)"/>
      </g>
      <path id="路径_638" data-name="路径 638" d="M210.85,142c-1.67,1.5-1.45,4.47.49,6.63s4.87,2.69,6.54,1.18a3.46,3.46,0,0,0,1.12-2.5l-1.14,1c-1.27,1.15-3.56.7-5.09-1s-1.75-4-.47-5.17l1.11-1a3.46,3.46,0,0,0-2.56.86Z" fill="#395b77"/>
      <path id="路径_639" data-name="路径 639" d="M243,118.45l1.68-1.51,12.66-11.39c.17.21.36.43.55.64a6.852,6.852,0,0,0,.52.55L245.8,118.13l-1.68,1.52c-.59.52-1,.43-1.31.11S242.46,119,243,118.45Z" fill="#416889"/>
      <path id="路径_640" data-name="路径 640" d="M257.38,105.55c.17.21.36.43.55.64a6.851,6.851,0,0,0,.52.55c1.87,1.92,3.78,3,4.41,2.4l.88-.78c-.69.62-2.9-.7-4.93-3s-3.12-4.59-2.43-5.22l-.87.8C254.88,101.55,255.71,103.51,257.38,105.55Z" fill="#395b77"/>
      <path id="路径_641" data-name="路径 641" d="M174.38,177.73s-14.33,28.33-25.86,50.59c7.53,14.56,56.26,13.5,65.56,0-10.4-18-27.46-47.52-27.46-47.52a9.44,9.44,0,0,1-4.37,1.06A9.55,9.55,0,0,1,174.38,177.73Z" fill="#395b77"/>
      <path id="路径_642" data-name="路径 642" d="M193.91,163.56c-22.27-24.75-37.51-55.72-26.64-67.49-13.13,13-7.6,42.69,10.46,67.77a107.608,107.608,0,0,0,7.7,9.55c1.43,1.59,2.94,3.12,4.5,4.6,19.2,18.08,47.36,27.37,63.78,21.34C239.17,202.74,213.75,185.63,193.91,163.56Z" fill="#395b77"/>
      <path id="路径_643" data-name="路径 643" d="M167.27,96.07c-10.87,11.77,4.37,42.74,26.64,67.49,19.84,22.07,45.26,39.18,59.8,35.77a20.53,20.53,0,0,0,6.12-3.42c-10.87,8.47-39.21-6.49-63.95-33.95-25.16-27.93-37.08-58.2-26.62-67.62A19.689,19.689,0,0,0,167.31,96Z" fill="#416889"/>
      <path id="路径_644" data-name="路径 644" d="M230.8,125.14l.24-.22c-24.49-26-51.7-39.66-61.78-30.58C158.8,103.76,170.72,134,195.88,162c24.74,27.46,53.08,42.42,63.95,33.95l.53-.44c10-9.05-.57-37.37-23.76-64.36L219,147.28a3.46,3.46,0,0,1-1.12,2.5c-1.67,1.51-4.6,1-6.54-1.18s-2.16-5.13-.49-6.63a3.46,3.46,0,0,1,2.56-.85Z" fill="url(#radial-gradient)"/>
      <path id="路径_645" data-name="路径 645" d="M177.73,163.84a9.58,9.58,0,0,0,4.52,18,9.44,9.44,0,0,0,4.37-1.06,9.76,9.76,0,0,0,3.31-2.81c-1.56-1.48-3.07-3-4.5-4.6a107.6,107.6,0,0,1-7.7-9.53Z" fill="#395b77"/>
      <path id="路径_646" data-name="路径 646" d="M213.41,141.12l-1.11,1c-1.28,1.15-1.07,3.46.47,5.17s3.82,2.16,5.09,1l1.14-1,17.6-16.17-.06-.07-.06.05a4.91,4.91,0,0,1-4.22-1.84,5.14,5.14,0,0,1-1.46-4.11Z" fill="#416889"/>
      <path id="路径_647" data-name="路径 647" d="M232.92,123.19c-.78,1.23-.45,3.18.89,4.67,1.53,1.7,3.88,2.22,5.15,1.07l1.69-1.55a4.88,4.88,0,0,1-4.27-1.84,5,5,0,0,1-1.44-4.2Z" fill="#416889"/>
      <path id="路径_648" data-name="路径 648" d="M230.8,125.14l.24-.22,1.88-1.73c-.78,1.23-.45,3.18.89,4.67,1.53,1.7,3.88,2.22,5.15,1.07l-2.36,2.18-.06-.07-.06.05a4.91,4.91,0,0,1-4.22-1.84A5.14,5.14,0,0,1,230.8,125.14Z" fill="#395b77"/>
      <path id="路径_649" data-name="路径 649" d="M234.94,121.34a5,5,0,0,0,1.44,4.2,4.88,4.88,0,0,0,4.27,1.84l2.39-2.19h0c-1.28,1.14-3.56.7-5.1-1s-1.69-3.65-.75-4.86Z" fill="#395b77"/>
      <path id="路径_650" data-name="路径 650" d="M237.17,119.29c-.94,1.21-.66,3.29.75,4.86s3.82,2.15,5.1,1h0l2.75-2.52c-1.28,1.15-3.56.69-5.1-1s-1.75-4-.47-5.18Z" fill="#416889"/>
      <path id="路径_651" data-name="路径 651" d="M240.22,116.48c-1.28,1.16-1.06,3.47.47,5.18s3.82,2.16,5.1,1c1.11-1,1.09-2.93,0-4.54l-1.68,1.52c-.59.52-1,.43-1.31.11s-.35-.77.23-1.31l1.68-1.51C243.24,115.71,241.34,115.47,240.22,116.48Z" fill="#395b77"/>
      <path id="路径_652" data-name="路径 652" d="M256.38,100.19c-.69.63.4,3,2.43,5.22s4.24,3.57,4.93,3-.39-3-2.42-5.22S257.08,99.57,256.38,100.19Z" fill="#416889"/>
      <path id="路径_653" data-name="路径 653" d="M255.89,182.05c-13.3,2.15-34.34-27-38.69-31.8" fill="none" stroke="#4a779b" stroke-miterlimit="10" stroke-width="0.65"/>
      <path id="路径_654" data-name="路径 654" d="M210.31,142.6c-2.64-3.07-25.57-28.64-25.77-36.43" fill="none" stroke="#4a779b" stroke-miterlimit="10" stroke-width="0.65"/>
      <path id="路径_655" data-name="路径 655" d="M184.54,106.17l80.95-7.36-9.6,83.24" fill="none" stroke="#395b77" stroke-miterlimit="10" stroke-width="0.65"/>
      <line id="直线_7" data-name="直线 7" x1="66.55" y2="63.9" transform="translate(198.94 98.81)" fill="none" stroke="#395b77" stroke-miterlimit="10" stroke-width="0.65"/>
      <path id="路径_656" data-name="路径 656" d="M275.58,64c-1.07,2.38-2.17,4.75-3.31,7.09s-2.29,4.69-3.47,7l-.2-.58,3.48,1.5c1.17.5,2.32,1,3.47,1.55l.47.2-.27.42c-1.53,2.42-3,4.86-4.62,7.25s-3.15,4.79-4.79,7.14q2.06-3.78,4.25-7.47c1.43-2.49,2.94-4.92,4.42-7.37l.19.62c-1.16-.5-2.33-1-3.48-1.51l-3.46-1.56-.41-.18.2-.4q1.8-3.46,3.69-6.89C273,68.53,274.27,66.25,275.58,64Z" fill="#4a779b"/>
      <path id="路径_657" data-name="路径 657" d="M284.07,94.17c-2.13,1.25-4.33,2.36-6.56,3.41l-.42.19-.18-.44c-.43-1.12-.86-2.23-1.26-3.36l.63.24c-2.39,1.26-4.82,2.46-7.35,3.49a81.005,81.005,0,0,1,6.92-4.28l.44-.24.19.48c.44,1.11.85,2.24,1.26,3.36l-.59-.25C279.42,95.81,281.71,94.92,284.07,94.17Z" fill="#4a779b"/>
      <path id="路径_658" data-name="路径 658" d="M305.45,67.12c-1.78,1.91-3.58,3.8-5.42,5.65s-3.67,3.71-5.53,5.53l-.15.14h-.21c-3-.42-6.06-.84-9.08-1.32l.41-.17c-1.57,2-3.12,4.07-4.75,6.06s-3.23,4-4.9,6c1.42-2.14,2.9-4.24,4.4-6.33s3-4.14,4.56-6.21l.15-.2h.26c3,.4,6.05.87,9.07,1.34l-.35.12q2.82-2.72,5.71-5.35T305.45,67.12Z" fill="#4a779b"/>
      <path id="路径_659" data-name="路径 659" d="M295.06,204.43c.14,1,1.8,3.66,2.17,3.68h.24l7.37,21.6-1.21.49-9.08-26.11a1.8,1.8,0,0,1,.65-2.05l.27-.2a8,8,0,0,0-.41,2.59Z" fill="#395b77"/>
      <path id="路径_660" data-name="路径 660" d="M291.21,235c-.37.45-.46,1.54,0,1.86a15.089,15.089,0,0,0,5.27.06c.95-.29,7.33-.51,8-.52s3.9,0,4.51-1a2.09,2.09,0,0,0,0-2.51,1.75,1.75,0,0,1-1.68,1.38c-1.3.14-3.7-.18-4.68,0a21.313,21.313,0,0,1-11,1.31C291.23,235.59,291,235.32,291.21,235Z" fill="#ebfcff"/>
      <path id="路径_661" data-name="路径 661" d="M291.21,235c-.17.29,0,.56.41.58,6.2.93,10-1.15,11-1.31s3.38.16,4.68,0a1.75,1.75,0,0,0,1.68-1.38,1.471,1.471,0,0,0,0-.36,16.378,16.378,0,0,0-.6-2.74c-.13-.54.35-.94.23-1.23s-.41-.15-1.06-.3-.68.33-1,.91a2.51,2.51,0,0,1-2.23,1c-.86-.12-.42-.73-.35-1.4a1.3,1.3,0,0,0-1.06-1.08,2.07,2.07,0,0,0-1.05,0,12.11,12.11,0,0,1-5.93,4.34,27.553,27.553,0,0,0-4.72,2.97Z" fill="#e49056"/>
      <path id="路径_662" data-name="路径 662" d="M291.21,235c-.37.45-.46,1.54,0,1.86a15.089,15.089,0,0,0,5.27.06c.95-.29,7.33-.51,8-.52s3.9,0,4.51-1a2.09,2.09,0,0,0,0-2.51" fill="none" stroke="#4986d9" stroke-miterlimit="10" stroke-width="0.13"/>
      <path id="路径_663" data-name="路径 663" d="M283.2,171c0,.29.2.31.44.27h0l.79.57-.24.33-1.21-.89a2.389,2.389,0,0,0,.17-.37h.05Z" fill="#7798b9"/>
      <path id="路径_664" data-name="路径 664" d="M281.79,169.92l.34.24a1.68,1.68,0,0,0-.37.2l-.16-.12A1,1,0,0,0,281.79,169.92Z" fill="#7798b9"/>
      <path id="路径_665" data-name="路径 665" d="M278.07,167.57c0,.84,1.14,2.43,3.48,2.71a1.13,1.13,0,0,1-1.14.15,4.08,4.08,0,0,1-2.61-2.24c-.09-.52.07-.93.48-1.07A.49.49,0,0,0,278.07,167.57Z" fill="#a4c0d9"/>
      <path id="路径_666" data-name="路径 666" d="M279.56,167.27a4.481,4.481,0,0,1,1.35.83,5.514,5.514,0,0,0,0,.57,5.059,5.059,0,0,0-1.36-.94c-.62-.32-1.17-.38-1.46-.16h0a.49.49,0,0,1,.21-.45A1.93,1.93,0,0,1,279.56,167.27Z" fill="#6ea9d3"/>
      <path id="路径_667" data-name="路径 667" d="M281.52,169.71a1.54,1.54,0,0,1,0,.57h0c-2.34-.28-3.47-1.87-3.48-2.71h0c.29-.22.84-.16,1.46.16a5.06,5.06,0,0,1,1.36.94,1.5,1.5,0,0,0,.2.75A.6.6,0,0,0,281.52,169.71Z" fill="#ebfcff"/>
      <path id="路径_668" data-name="路径 668" d="M308.94,193.5l-10.31,8.14a.84.84,0,0,0-.4-.94v-.88l9.49-6.91a4.87,4.87,0,0,0,1.22.59Z" fill="#395b77"/>
      <path id="路径_669" data-name="路径 669" d="M308.94,193.5c4.18,1.47,12.26-.28,11.63-2.56h0l.33,1.29a3.44,3.44,0,0,1-1.36,3.75L303.62,207,309,230.91,305.62,232l-.78-2.29-7.37-21.6a1,1,0,0,0,.62-.2c.21-.18-.58-1.19-1-2.12s-.65-2.57-.06-2.89,1.25-.38,1.39-.75a2.729,2.729,0,0,0,.19-.51Z" fill="#3f6584"/>
      <path id="路径_670" data-name="路径 670" d="M299.79,181.78c-.71-.41-1.18-.64-1.18-.64s.18,1.31.23,3v1.27a4.633,4.633,0,0,1-.44.23,8.52,8.52,0,0,1-4.46.59,9.82,9.82,0,0,1-1.29-.21l-1.39-6.7-.22-1a3.361,3.361,0,0,1-.2-1.22c0-.81,0-1.2.08-2.39v-.22c-.09-.46-.23-1.14-.48-2a1.491,1.491,0,0,0,.44-.17c1.62-1,2.34-5.42,1.87-5.78h.76c1.87-.07,9.18-.51,13.76,2.18s9.37,7.27,10.31,10.79a30.222,30.222,0,0,1,.92,3.59l2,7.9h0c.63,2.28-7.45,4-11.63,2.56a4.87,4.87,0,0,1-1.21-.59,2.79,2.79,0,0,1-.38-.3C308.84,187.59,302.51,183.34,299.79,181.78Z" fill="#ffb056"/>
      <path id="路径_671" data-name="路径 671" d="M298.24,199.82v.88a.84.84,0,0,1,.4.94,2.731,2.731,0,0,1-.19.51c-.14.37-.8.42-1.39.75s-.33,1.95.06,2.89,1.19,1.94,1,2.12a1,1,0,0,1-.62.2h-.24c-.37,0-2-2.64-2.17-3.68a8,8,0,0,1,.41-2.59,5,5,0,0,0,.14-.76l-1.18-13.58-.47-1.3a8.52,8.52,0,0,0,4.46-.59,10.754,10.754,0,0,1,.06,1.5Z" fill="#ffeed2"/>
      <path id="路径_672" data-name="路径 672" d="M299.79,181.78l-.55,1.84c-.14.33-.09.48-.4.49a19.765,19.765,0,0,0-.23-3S299.08,181.37,299.79,181.78Z" fill="#fae6d2"/>
      <path id="路径_673" data-name="路径 673" d="M291.06,178.25a3.36,3.36,0,0,1-.2-1.22c0-.81,0-1.2.08-2.39l-5.2-2.25c-.15-.64,0-1.29-.17-1.7a3.53,3.53,0,0,1-1.86-.31.74.74,0,0,0-.51.52h0c0,.29.2.31.44.27h0l.79.57-.24.33-1.21-.89a2.39,2.39,0,0,0,.17-.37.5.5,0,0,0-.07-.51.76.76,0,0,0-.95-.22,1.68,1.68,0,0,0-.37.2l-.13.09a2,2,0,0,0-.68,1.8c.06.83,1.95,1.21,3.31,1.79l7,5.25h0Z" fill="#fae6d2"/>
      <path id="路径_674" data-name="路径 674" d="M289.7,165.36a5.5,5.5,0,0,0-1.08-3c-1.77-2.5-4.85-3.37-6.88-1.93a4.67,4.67,0,0,0-1.33,5.5,3.77,3.77,0,0,1,.5,2.15,5.514,5.514,0,0,0,0,.57,1.5,1.5,0,0,0,.2.75.6.6,0,0,0,.42.29.93.93,0,0,0,.33,0,1.23,1.23,0,0,1,.81-.07,3.24,3.24,0,0,0,1,.78,3.53,3.53,0,0,0,1.86.31,2.7,2.7,0,0,0,.69-.18,4.43,4.43,0,0,0,1.32-.84l.4-.37a4.813,4.813,0,0,0,.44-.47,5.15,5.15,0,0,0,1.28-3,4.346,4.346,0,0,0,.04-.49Z" fill="#ffeed2"/>
      <path id="路径_675" data-name="路径 675" d="M289.71,165.36c.39.71,1.56,1.08,3.08,1.12h0c.47.36-.25,4.81-1.87,5.78a1.357,1.357,0,0,0-.13-.42c-.5-1.56-1.53-2.95-2.37-3a5.15,5.15,0,0,0,1.28-3,4.341,4.341,0,0,0,0-.51Z" fill="#ffeed2"/>
      <path id="路径_676" data-name="路径 676" d="M290.79,171.85a.74.74,0,0,0-.31.59,1,1,0,0,0,.44-.17Z" fill="#e49056"/>
      <path id="路径_677" data-name="路径 677" d="M293.2,235.62c-.37.45-.47,1.54,0,1.86a15.16,15.16,0,0,0,5.28.06c.95-.29,7.33-.51,8-.52s3.9,0,4.51-1a2.09,2.09,0,0,0,0-2.51,1.75,1.75,0,0,1-1.68,1.38c-1.3.14-3.7-.18-4.68,0a21.313,21.313,0,0,1-11,1.31C293.21,236.18,293,235.91,293.2,235.62Z" fill="#ebfcff"/>
      <path id="路径_678" data-name="路径 678" d="M293.2,235.62c-.17.29,0,.56.41.58,6.2.93,10-1.15,11-1.31s3.38.16,4.68,0a1.75,1.75,0,0,0,1.68-1.38,1.471,1.471,0,0,0,0-.36,16.381,16.381,0,0,0-.6-2.74c-.13-.54.35-.94.23-1.23s-.41-.15-1.06-.3-.68.33-1,.91a2.51,2.51,0,0,1-2.23,1c-.86-.12-.42-.72-.35-1.4a1.3,1.3,0,0,0-1.06-1.08,2.07,2.07,0,0,0-1.05,0,12.11,12.11,0,0,1-5.93,4.34A27.55,27.55,0,0,0,293.2,235.62Z" fill="#ffb056"/>
      <path id="路径_679" data-name="路径 679" d="M293.2,235.62c-.37.45-.47,1.54,0,1.86a15.16,15.16,0,0,0,5.28.06c.95-.29,7.33-.51,8-.52s3.9,0,4.51-1a2.09,2.09,0,0,0,0-2.51" fill="none" stroke="#4986d9" stroke-miterlimit="10" stroke-width="0.13"/>
      <path id="路径_680" data-name="路径 680" d="M278.31,166.43a1.61,1.61,0,0,0,1.45-.37c.07.27,0,.62-.15.65.51,0,.76-.34,1.2-1.55a1.92,1.92,0,0,1,1.89-1.38,2,2,0,0,1,1.62,1.81c.06-1.08,0-1.47.65-1.36s.57,1.75.95,2a3.09,3.09,0,0,0,4.87-1.22c-.77.21-.93,0-.92-.46a8.171,8.171,0,0,0-.14-2.71,6,6,0,0,0-1.91-3c-1-.59-3.11-1.7-5.21-.21a5.6,5.6,0,0,0-3.05,2.07,5.3,5.3,0,0,0-.66,3C279.09,164.59,279.5,166.24,278.31,166.43Z"/>
      <path id="路径_681" data-name="路径 681" d="M281.55,170.28a.85.85,0,0,0,.24-.36v-.23a1.148,1.148,0,0,1-.24,0,1.45,1.45,0,0,1,0,.59Z" fill="#b0e7ff"/>
    </g>
  </g>
</svg>
