<svg xmlns="http://www.w3.org/2000/svg" xmlns:xlink="http://www.w3.org/1999/xlink" width="359.07" height="262.12" viewBox="0 0 359.07 262.12">
  <defs>
    <linearGradient id="linear-gradient" x1="0.5" x2="0.5" y2="1" gradientUnits="objectBoundingBox">
      <stop offset="0" stop-color="#428fce"/>
      <stop offset="1" stop-color="#5ecfff" stop-opacity="0"/>
    </linearGradient>
    <linearGradient id="linear-gradient-2" x1="0.5" x2="0.5" y2="1" gradientUnits="objectBoundingBox">
      <stop offset="0" stop-color="#59ace9"/>
      <stop offset="1" stop-color="#5ecfff" stop-opacity="0"/>
    </linearGradient>
    <linearGradient id="linear-gradient-3" x1="0.5" y1="0" x2="0.5" y2="1" xlink:href="#linear-gradient-2"/>
    <linearGradient id="linear-gradient-4" x1="0.5" y1="0" x2="0.5" y2="1" xlink:href="#linear-gradient-2"/>
    <linearGradient id="linear-gradient-5" x1="0.5" y1="0" x2="0.5" y2="1" xlink:href="#linear-gradient-2"/>
  </defs>
  <g id="图层_2" data-name="图层 2" transform="translate(-53.21)">
    <g id="图层_1" data-name="图层 1">
      <path id="路径_587" data-name="路径 587" d="M412.28,262.12c-23-23-61-37.69-179.53-37.69S76.24,239.1,53.21,262.12Z" opacity="0.4" fill="url(#linear-gradient)"/>
      <g id="组_532" data-name="组 532" opacity="0.7">
        <path id="路径_588" data-name="路径 588" d="M380.66,26.68H318.07a2.71,2.71,0,0,0-2.82,2.59V201.44a2.71,2.71,0,0,0,2.82,2.59h62.59a2.72,2.72,0,0,0,2.82-2.59V29.27a2.72,2.72,0,0,0-2.82-2.59ZM328.3,147a.9.9,0,0,1-.95.87h-3.6a.9.9,0,0,1-.95-.87V127.27a.91.91,0,0,1,.95-.87h3.6a.91.91,0,0,1,.95.87Zm0-30.23a.91.91,0,0,1-.95.87h-3.6a.91.91,0,0,1-.95-.87V97a.91.91,0,0,1,.95-.87h3.6a.91.91,0,0,1,.95.87Zm0-30.24a.91.91,0,0,1-.95.87h-3.6a.91.91,0,0,1-.95-.87V66.8a.91.91,0,0,1,.95-.87h3.6a.91.91,0,0,1,.95.87Zm0-30.24a.91.91,0,0,1-.95.87h-3.6a.91.91,0,0,1-.95-.87V36.56a.91.91,0,0,1,.95-.87h3.6a.91.91,0,0,1,.95.87ZM340,147a.9.9,0,0,1-.94.87h-3.61a.91.91,0,0,1-.95-.87V127.27a.92.92,0,0,1,.95-.87h3.61a.91.91,0,0,1,.94.87Zm0-30.23a.91.91,0,0,1-.94.87h-3.61a.92.92,0,0,1-.95-.87V97a.92.92,0,0,1,.95-.87h3.61A.91.91,0,0,1,340,97Zm0-30.24a.91.91,0,0,1-.94.87h-3.61a.92.92,0,0,1-.95-.87V66.8a.92.92,0,0,1,.95-.87h3.61a.91.91,0,0,1,.94.87Zm0-30.24a.91.91,0,0,1-.94.87h-3.61a.92.92,0,0,1-.95-.87V36.56a.92.92,0,0,1,.95-.87h3.61a.91.91,0,0,1,.94.87ZM351.7,147a.9.9,0,0,1-.94.87h-3.61a.9.9,0,0,1-.94-.87V127.27a.91.91,0,0,1,.94-.87h3.61a.91.91,0,0,1,.94.87Zm0-30.23a.91.91,0,0,1-.94.87h-3.61a.91.91,0,0,1-.94-.87V97a.91.91,0,0,1,.94-.87h3.61a.91.91,0,0,1,.94.87Zm0-30.24a.91.91,0,0,1-.94.87h-3.61a.91.91,0,0,1-.94-.87V66.8a.91.91,0,0,1,.94-.87h3.61a.91.91,0,0,1,.94.87Zm0-30.24a.91.91,0,0,1-.94.87h-3.61a.91.91,0,0,1-.94-.87V36.56a.91.91,0,0,1,.94-.87h3.61a.91.91,0,0,1,.94.87ZM363.4,147a.9.9,0,0,1-.94.87h-3.61a.9.9,0,0,1-.94-.87V127.27a.91.91,0,0,1,.94-.87h3.61a.91.91,0,0,1,.94.87Zm0-30.23a.91.91,0,0,1-.94.87h-3.61a.91.91,0,0,1-.94-.87V97a.91.91,0,0,1,.94-.87h3.61a.91.91,0,0,1,.94.87Zm0-30.24a.91.91,0,0,1-.94.87h-3.61a.91.91,0,0,1-.94-.87V66.8a.91.91,0,0,1,.94-.87h3.61a.91.91,0,0,1,.94.87Zm0-30.24a.91.91,0,0,1-.94.87h-3.61a.91.91,0,0,1-.94-.87V36.56a.91.91,0,0,1,.94-.87h3.61a.91.91,0,0,1,.94.87ZM375.11,147a.91.91,0,0,1-.95.87h-3.61a.9.9,0,0,1-.94-.87V127.27a.91.91,0,0,1,.94-.87h3.61a.92.92,0,0,1,.95.87Zm0-30.23a.92.92,0,0,1-.95.87h-3.61a.91.91,0,0,1-.94-.87V97a.91.91,0,0,1,.94-.87h3.61a.92.92,0,0,1,.95.87Zm0-30.24a.92.92,0,0,1-.95.87h-3.61a.91.91,0,0,1-.94-.87V66.8a.91.91,0,0,1,.94-.87h3.61a.92.92,0,0,1,.95.87Zm0-30.24a.92.92,0,0,1-.95.87h-3.61a.91.91,0,0,1-.94-.87V36.56a.91.91,0,0,1,.94-.87h3.61a.92.92,0,0,1,.95.87Z" opacity="0.4" fill="url(#linear-gradient-2)"/>
        <path id="路径_589" data-name="路径 589" d="M231.1,55.61H171.8A2.71,2.71,0,0,0,169,58.2V201.44a2.71,2.71,0,0,0,2.8,2.56h59.3a2.71,2.71,0,0,0,2.82-2.59V58.2a2.71,2.71,0,0,0-2.82-2.59ZM182.47,159.37a1.16,1.16,0,0,1-1.2,1.11h-5.4a1.16,1.16,0,0,1-1.2-1.11v-5.22a1.15,1.15,0,0,1,1.2-1.1h5.4a1.15,1.15,0,0,1,1.2,1.1Zm0-12.88a1.15,1.15,0,0,1-1.2,1.1h-5.4a1.15,1.15,0,0,1-1.2-1.1v-5.22a1.16,1.16,0,0,1,1.2-1.11h5.4a1.16,1.16,0,0,1,1.2,1.11Zm0-12.89a1.16,1.16,0,0,1-1.2,1.11h-5.4a1.16,1.16,0,0,1-1.2-1.11v-5.22a1.15,1.15,0,0,1,1.2-1.1h5.4a1.15,1.15,0,0,1,1.2,1.1Zm0-12.88a1.15,1.15,0,0,1-1.2,1.1h-5.4a1.15,1.15,0,0,1-1.2-1.1V115.5a1.16,1.16,0,0,1,1.2-1.11h5.4a1.16,1.16,0,0,1,1.2,1.11Zm0-12.89a1.16,1.16,0,0,1-1.2,1.11h-5.4a1.16,1.16,0,0,1-1.2-1.11v-5.21a1.15,1.15,0,0,1,1.2-1.11h5.4a1.15,1.15,0,0,1,1.2,1.11Zm0-12.88a1.15,1.15,0,0,1-1.2,1.1h-5.4a1.15,1.15,0,0,1-1.2-1.1V89.73a1.16,1.16,0,0,1,1.2-1.11h5.4a1.16,1.16,0,0,1,1.2,1.11Zm0-12.89a1.16,1.16,0,0,1-1.2,1.11h-5.4a1.16,1.16,0,0,1-1.2-1.11V76.85a1.15,1.15,0,0,1,1.2-1.11h5.4a1.15,1.15,0,0,1,1.2,1.11Zm0-12.88a1.15,1.15,0,0,1-1.2,1.1h-5.4a1.15,1.15,0,0,1-1.2-1.1V64a1.16,1.16,0,0,1,1.2-1.11h5.4a1.16,1.16,0,0,1,1.2,1.11Zm10.08,90.19a1.16,1.16,0,0,1-1.2,1.11H186a1.16,1.16,0,0,1-1.21-1.11v-5.22a1.16,1.16,0,0,1,1.21-1.1h5.4a1.15,1.15,0,0,1,1.2,1.1Zm0-12.88a1.15,1.15,0,0,1-1.2,1.1H186a1.16,1.16,0,0,1-1.21-1.1v-5.22a1.16,1.16,0,0,1,1.21-1.11h5.4a1.16,1.16,0,0,1,1.2,1.11Zm0-12.89a1.16,1.16,0,0,1-1.2,1.11H186a1.16,1.16,0,0,1-1.21-1.11v-5.22a1.16,1.16,0,0,1,1.21-1.1h5.4a1.15,1.15,0,0,1,1.2,1.1Zm0-12.88a1.15,1.15,0,0,1-1.2,1.1H186a1.16,1.16,0,0,1-1.21-1.1V115.5a1.16,1.16,0,0,1,1.21-1.11h5.4a1.16,1.16,0,0,1,1.2,1.11Zm0-12.89a1.16,1.16,0,0,1-1.2,1.11H186a1.16,1.16,0,0,1-1.21-1.11v-5.21a1.16,1.16,0,0,1,1.21-1.11h5.4a1.15,1.15,0,0,1,1.2,1.11Zm0-12.88a1.15,1.15,0,0,1-1.2,1.1H186a1.16,1.16,0,0,1-1.21-1.1V89.73A1.16,1.16,0,0,1,186,88.62h5.4a1.16,1.16,0,0,1,1.2,1.11Zm0-12.89a1.16,1.16,0,0,1-1.2,1.11H186a1.16,1.16,0,0,1-1.21-1.11V76.85A1.16,1.16,0,0,1,186,75.74h5.4a1.15,1.15,0,0,1,1.2,1.11Zm0-12.88a1.15,1.15,0,0,1-1.2,1.1H186a1.16,1.16,0,0,1-1.21-1.1V64A1.16,1.16,0,0,1,186,62.85h5.4a1.16,1.16,0,0,1,1.2,1.11Zm10.08,90.19a1.16,1.16,0,0,1-1.21,1.11H196a1.16,1.16,0,0,1-1.2-1.11v-5.22a1.15,1.15,0,0,1,1.2-1.1h5.4a1.16,1.16,0,0,1,1.21,1.1Zm0-12.88a1.16,1.16,0,0,1-1.21,1.1H196a1.15,1.15,0,0,1-1.2-1.1v-5.22a1.16,1.16,0,0,1,1.2-1.11h5.4a1.16,1.16,0,0,1,1.21,1.11Zm0-12.89a1.16,1.16,0,0,1-1.21,1.11H196a1.16,1.16,0,0,1-1.2-1.11v-5.22a1.15,1.15,0,0,1,1.2-1.1h5.4a1.16,1.16,0,0,1,1.21,1.1Zm0-12.88a1.16,1.16,0,0,1-1.21,1.1H196a1.15,1.15,0,0,1-1.2-1.1V115.5a1.16,1.16,0,0,1,1.2-1.11h5.4a1.16,1.16,0,0,1,1.21,1.11Zm0-12.89a1.16,1.16,0,0,1-1.21,1.11H196a1.16,1.16,0,0,1-1.2-1.11v-5.21a1.15,1.15,0,0,1,1.2-1.11h5.4a1.16,1.16,0,0,1,1.21,1.11Zm0-12.88a1.16,1.16,0,0,1-1.21,1.1H196a1.15,1.15,0,0,1-1.2-1.1V89.73a1.16,1.16,0,0,1,1.2-1.11h5.4a1.16,1.16,0,0,1,1.21,1.11Zm0-12.89a1.16,1.16,0,0,1-1.21,1.11H196a1.16,1.16,0,0,1-1.2-1.11V76.85a1.15,1.15,0,0,1,1.2-1.11h5.4a1.16,1.16,0,0,1,1.21,1.11Zm0-12.88a1.16,1.16,0,0,1-1.21,1.1H196a1.15,1.15,0,0,1-1.2-1.1V64a1.16,1.16,0,0,1,1.2-1.11h5.4A1.16,1.16,0,0,1,202.63,64Zm25.21,90.19a1.16,1.16,0,0,1-1.2,1.11H206.1a1.16,1.16,0,0,1-1.2-1.11v-5.22a1.15,1.15,0,0,1,1.2-1.1h20.54a1.15,1.15,0,0,1,1.2,1.1Zm0-12.88a1.15,1.15,0,0,1-1.2,1.1H206.1a1.15,1.15,0,0,1-1.2-1.1v-5.22a1.16,1.16,0,0,1,1.2-1.11h20.54a1.16,1.16,0,0,1,1.2,1.11Zm0-12.89a1.16,1.16,0,0,1-1.2,1.11H206.1a1.16,1.16,0,0,1-1.2-1.11v-5.22a1.15,1.15,0,0,1,1.2-1.1h20.54a1.15,1.15,0,0,1,1.2,1.1Zm0-12.88a1.15,1.15,0,0,1-1.2,1.1H206.1a1.15,1.15,0,0,1-1.2-1.1V115.5a1.16,1.16,0,0,1,1.2-1.11h20.54a1.16,1.16,0,0,1,1.2,1.11Zm0-12.89a1.16,1.16,0,0,1-1.2,1.11H206.1a1.16,1.16,0,0,1-1.2-1.11v-5.21a1.15,1.15,0,0,1,1.2-1.11h20.54a1.15,1.15,0,0,1,1.2,1.11Zm0-12.88a1.15,1.15,0,0,1-1.2,1.1H206.1a1.15,1.15,0,0,1-1.2-1.1V89.73a1.16,1.16,0,0,1,1.2-1.11h20.54a1.16,1.16,0,0,1,1.2,1.11Zm0-12.89a1.16,1.16,0,0,1-1.2,1.11H206.1a1.16,1.16,0,0,1-1.2-1.11V76.85a1.15,1.15,0,0,1,1.2-1.11h20.54a1.15,1.15,0,0,1,1.2,1.11Zm0-12.88a1.15,1.15,0,0,1-1.2,1.1H206.1a1.15,1.15,0,0,1-1.2-1.1V64a1.16,1.16,0,0,1,1.2-1.11h20.54a1.16,1.16,0,0,1,1.2,1.11Z" opacity="0.4" fill="url(#linear-gradient-3)"/>
        <path id="路径_590" data-name="路径 590" d="M161.13,26.68H84.83A2.71,2.71,0,0,0,82,29.27V201.44A2.71,2.71,0,0,0,84.83,204h76.3a2.71,2.71,0,0,0,2.82-2.59V29.27A2.71,2.71,0,0,0,161.13,26.68ZM154.34,161a1.16,1.16,0,0,1-1.2,1.11H92.83A1.16,1.16,0,0,1,91.62,161v-5.21a1.16,1.16,0,0,1,1.21-1.11h60.31a1.15,1.15,0,0,1,1.2,1.11Zm0-14.67a1.15,1.15,0,0,1-1.2,1.1H92.83a1.16,1.16,0,0,1-1.21-1.1v-5.22A1.16,1.16,0,0,1,92.83,140h60.31a1.16,1.16,0,0,1,1.2,1.11Zm0-14.68a1.16,1.16,0,0,1-1.2,1.11H92.83a1.16,1.16,0,0,1-1.21-1.11v-5.22a1.16,1.16,0,0,1,1.21-1.1h60.31a1.15,1.15,0,0,1,1.2,1.1Zm0-14.68a1.16,1.16,0,0,1-1.2,1.11H92.83a1.16,1.16,0,0,1-1.21-1.11v-5.21a1.16,1.16,0,0,1,1.21-1.11h60.31a1.15,1.15,0,0,1,1.2,1.11Zm0-14.67a1.15,1.15,0,0,1-1.2,1.1H92.83a1.16,1.16,0,0,1-1.21-1.1V97a1.16,1.16,0,0,1,1.21-1.11h60.31a1.16,1.16,0,0,1,1.2,1.11Zm0-14.68a1.16,1.16,0,0,1-1.2,1.11H92.83a1.16,1.16,0,0,1-1.21-1.11V82.35a1.16,1.16,0,0,1,1.21-1.1h60.31a1.15,1.15,0,0,1,1.2,1.1Zm0-14.68a1.16,1.16,0,0,1-1.2,1.11H92.83a1.16,1.16,0,0,1-1.21-1.11V67.68a1.16,1.16,0,0,1,1.21-1.11h60.31a1.15,1.15,0,0,1,1.2,1.11Zm0-14.67a1.15,1.15,0,0,1-1.2,1.1H92.83a1.16,1.16,0,0,1-1.21-1.1V53a1.16,1.16,0,0,1,1.21-1.11h60.31a1.16,1.16,0,0,1,1.2,1.11Zm0-14.68a1.16,1.16,0,0,1-1.2,1.11H92.83a1.16,1.16,0,0,1-1.21-1.11V38.32a1.16,1.16,0,0,1,1.21-1.1h60.31a1.15,1.15,0,0,1,1.2,1.1Z" opacity="0.4" fill="url(#linear-gradient-4)"/>
        <path id="路径_591" data-name="路径 591" d="M306.21,0H240.82a2.51,2.51,0,0,0-2.42,2.59V206.94a2.51,2.51,0,0,0,2.42,2.6h65.39a2.51,2.51,0,0,0,2.41-2.6V2.59A2.51,2.51,0,0,0,306.21,0Zm-5.82,134.28a1.06,1.06,0,0,1-1,1.1H247.67a1.06,1.06,0,0,1-1-1.1v-5.22a1.07,1.07,0,0,1,1-1.11h51.69a1.07,1.07,0,0,1,1,1.11Zm0-14.68a1.07,1.07,0,0,1-1,1.11H247.67a1.07,1.07,0,0,1-1-1.11v-5.22a1.06,1.06,0,0,1,1-1.1h51.69a1.06,1.06,0,0,1,1,1.1Zm0-14.68a1.07,1.07,0,0,1-1,1.11H247.67a1.07,1.07,0,0,1-1-1.11V99.71a1.07,1.07,0,0,1,1-1.11h51.69a1.07,1.07,0,0,1,1,1.11Zm0-14.67a1.06,1.06,0,0,1-1,1.1H247.67a1.06,1.06,0,0,1-1-1.1V85a1.07,1.07,0,0,1,1-1.11h51.69a1.07,1.07,0,0,1,1,1.11Zm0-14.68a1.07,1.07,0,0,1-1,1.11H247.67a1.07,1.07,0,0,1-1-1.11V70.35a1.06,1.06,0,0,1,1-1.1h51.69a1.06,1.06,0,0,1,1,1.1Zm0-14.68a1.07,1.07,0,0,1-1,1.11H247.67a1.07,1.07,0,0,1-1-1.11V55.68a1.07,1.07,0,0,1,1-1.11h51.69a1.07,1.07,0,0,1,1,1.11Zm0-14.67a1.06,1.06,0,0,1-1,1.1H247.67a1.06,1.06,0,0,1-1-1.1V41a1.07,1.07,0,0,1,1-1.11h51.69a1.07,1.07,0,0,1,1,1.11Zm0-14.68a1.07,1.07,0,0,1-1,1.11H247.67a1.07,1.07,0,0,1-1-1.11V26.32a1.06,1.06,0,0,1,1-1.1h51.69a1.06,1.06,0,0,1,1,1.1Zm0-14.68a1.07,1.07,0,0,1-1,1.11H247.67a1.07,1.07,0,0,1-1-1.11V11.65a1.07,1.07,0,0,1,1-1.11h51.69a1.07,1.07,0,0,1,1,1.11Z" opacity="0.4" fill="url(#linear-gradient-5)"/>
      </g>
      <path id="路径_592" data-name="路径 592" d="M182.43,170.83l.09.09a3.44,3.44,0,0,1,.41.44l.12.15a6,6,0,0,1,.39.59.929.929,0,0,0,.05.1,5.36,5.36,0,0,1,.32.73h0a6.388,6.388,0,0,1,.22.78v.19a8.08,8.08,0,0,1,.14.9V163.32h0a3.666,3.666,0,0,0-.11-.75v-.33L184,162c-.05-.17-.1-.33-.16-.49h0c-.06-.16-.12-.31-.19-.46s-.09-.17-.13-.25a.93.93,0,0,0-.05-.1.591.591,0,0,1,0-.08,3.74,3.74,0,0,0-.27-.42l-.08-.1-.12-.15c-.05-.06-.1-.13-.16-.19a3,3,0,0,0-.25-.25l-.09-.09a4.061,4.061,0,0,0-.5-.42l-.11-.07-.12-.07-.18-.12-.5-.23c-.26-.11-.53-.22-.81-.32a2.462,2.462,0,0,1-.29-.09l-.54-.16h0l-.65-.16-.34-.09c-.32-.06-.65-.13-1-.18h0c-.36-.06-.73-.11-1.12-.15h-.39l-.8-.07h-5.5v11.49h5.41l.79.07h.4l1.12.16h0l1,.19.34.08.65.16.58.18.29.09c.28.1.55.2.81.31a6.23,6.23,0,0,1,.68.36l.12.07a4.73,4.73,0,0,1,.59.38Z" fill="#395b77"/>
      <rect id="矩形_189" data-name="矩形 189" width="29.56" height="11.49" transform="translate(122.87 157.13)" fill="#395b77"/>
      <path id="路径_593" data-name="路径 593" d="M169.61,106.86v-1.75a2.506,2.506,0,0,0,0-.27,4.422,4.422,0,0,0-.1-.73q.008-.165,0-.33a1.891,1.891,0,0,1-.05-.23l-.12-.52a.6.6,0,0,0-.07-.34,2.411,2.411,0,0,1-.08-.25,1.174,1.174,0,0,0-.13-.4,2,2,0,0,0-.08-.26,1.028,1.028,0,0,0-.14-.35c-.05-.12-.08-.21-.13-.31v-.15c-.08-.18-.18-.34-.26-.51a1.743,1.743,0,0,1-.1-.19h0c-.14-.25-.3-.49-.46-.72h0c-.09-.13-.19-.24-.28-.36s-.2-.25-.3-.36h0l-.45-.43-.26-.24a6.42,6.42,0,0,0-.65-.48l-.13-.1h0l-.46-.27a1.631,1.631,0,0,0-.19-.09l-.52-.25c-.14-.06-.29-.13-.44-.18s-.37-.14-.57-.2l-.31-.1a.58.58,0,0,0-.14,0,9.779,9.779,0,0,0-1-.22h-.25c-.4-.06-.83-.11-1.26-.14h-2.41a1.579,1.579,0,0,0-.64.09h-.13a3,3,0,0,0-.43.09.35.35,0,0,0-.11,0,1.41,1.41,0,0,0-.22.06l-.24.06-.2.08-.23.08h-.14l-.27.12-.24.11h-.08l-.24.14-.33.18h-.08l-.14.1-.53.38-.12.09-.27.23a53.109,53.109,0,0,0-5.87,6.55l-36.44,45.8-2.55,3.17c-.68.86-1.34,1.75-2,2.68a12.249,12.249,0,0,0-1.44,2.65,7.17,7.17,0,0,0-.45,1.87c0,.2,0,.41,0,.61h0v11.49a7,7,0,0,1,.48-2.49,12.43,12.43,0,0,1,1.44-2.64c.65-.93,1.31-1.82,2-2.69l2.55-3.16L147.76,116a53.361,53.361,0,0,1,5.87-6.56l.39-.31c.17-.14.35-.26.53-.39a1.64,1.64,0,0,0,.22-.14l.33-.19.32-.17.24-.11.41-.17.23-.09.44-.14.22-.06.54-.11h.13c.23,0,.47-.07.71-.09h2.06a12.444,12.444,0,0,1,1.26.14h.25q.51.09,1,.21l.45.14c.2.06.39.12.57.19l.44.19.52.24c.22.12.44.24.65.37h0l.13.1a6.421,6.421,0,0,1,.65.48c.09.07.17.16.26.24s.31.28.45.43.21.26.32.39a4.392,4.392,0,0,1,.28.36,7.453,7.453,0,0,1,.5.78l.1.19c.11.21.22.43.31.65s.09.22.13.32a6.317,6.317,0,0,1,.22.61c.05.13.09.26.13.4l.15.59.12.52.09.56c0,.24.08.48.1.73s.06.52.08.79v1.52h0V107.13a2.445,2.445,0,0,0,.05-.27Z" fill="#395b77"/>
      <path id="路径_594" data-name="路径 594" d="M247,164.23c-1,5.13-2.63,9.07-5,11.83a11.675,11.675,0,0,1-.85.87c-.09.09-.18.16-.27.24a6.66,6.66,0,0,1-.59.49c-.19.14-.37.28-.56.4s-.39.27-.6.39l-.38.21c-.28.15-.57.3-.86.43l-.2.08a10,10,0,0,1-1.13.4l-.29.09c-.32.08-.64.16-1,.22L235,180c-.43.07-.87.14-1.32.18h-.23c-.43,0-.87.05-1.33.05a11.827,11.827,0,0,1-1.34-.05l-.7-.08-.77-.1h-.21c-.39-.08-.78-.17-1.16-.27a5.223,5.223,0,0,1-.72-.25l-.55-.19c-.24-.1-.46-.21-.7-.33s-.33-.14-.48-.23l-.21-.13a8.629,8.629,0,0,1-.82-.51c-.21-.15-.41-.31-.61-.47l-.43-.34c-.21-.19-.41-.39-.6-.59s-.27-.25-.39-.39a12.06,12.06,0,0,1-.77-.94l-.17-.22c-.23-.32-.47-.66-.69-1a1,1,0,0,0-.1-.17c-.2-.34-.4-.69-.59-1a1.62,1.62,0,0,1-.1-.18c-.2-.39-.39-.8-.58-1.22l-.13-.31c-.17-.4-.34-.81-.49-1.24l-.06-.14c-.17-.47-.33-1-.48-1.47l-.12-.43c-.12-.39-.22-.79-.33-1.2a1.924,1.924,0,0,0-.11-.46c-.13-.55-.26-1.11-.37-1.68s-.23-1.25-.33-1.9v-.14c-.1-.61-.19-1.25-.27-1.9a1.286,1.286,0,0,0-.07-.51c-.07-.57-.13-1.14-.19-1.73v-.35l-.09-1c0-.49-.09-1-.13-1.48s0-.75-.07-1.12-.06-1-.09-1.51,0-.81-.05-1.21,0-1-.07-1.55v11.48a12.72,12.72,0,0,0,.07,1.56c.07.56,0,.82.05,1.21l.09,1.5a5.915,5.915,0,0,0,.07,1.12c0,.51.09,1,.13,1.49a8.914,8.914,0,0,0,.08.89v.48c.06.59.12,1.16.19,1.72a4.341,4.341,0,0,0,.07.52c.08.65.17,1.28.27,1.9v.14c.06.41.13.82.2,1.21a3.888,3.888,0,0,0,.13.68c.11.58.24,1.14.37,1.69a2.044,2.044,0,0,0,.11.46c.04.16.09.37.14.55s.12.43.19.65l.12.43c.15.48.3,1,.46,1.42h0l.06.14c.15.43.32.84.49,1.24l.13.31.11.26c.15.33.31.65.47,1a1.624,1.624,0,0,0,.1.18c.09.18.19.36.29.54l.3.5.1.17c.18.28.36.56.54.82l.16.2.16.22c.25.33.5.64.77.94l.06.06c.1.12.22.22.33.33s.39.4.6.58.29.23.43.35.4.32.61.47l.07.06q.38.24.75.45l.21.13h0l.46.22c.23.11.46.23.7.33l.55.19c.24.08.47.17.72.24h0c.37.1.74.18,1.12.25h.41a1.878,1.878,0,0,1,.57.06,2.993,2.993,0,0,0,.7.08h1.6a6.343,6.343,0,0,0,1.07-.06h.26a7.123,7.123,0,0,0,1.13-.14h.16l.32-.07.52-.1.45-.13.29-.08.18-.05c.31-.1.6-.2.89-.32h.06l.2-.09.62-.28c.09,0,.16-.1.24-.14l.38-.21c.1-.07.21-.12.31-.18l.29-.21.56-.4.24-.18.35-.31.27-.24a11.84,11.84,0,0,0,.85-.88c2.39-2.75,4-6.69,5-11.82a113.489,113.489,0,0,0,1.44-20.15V144.08A113.423,113.423,0,0,1,247,164.23Z" fill="#395b77"/>
      <path id="路径_595" data-name="路径 595" d="M267.31,143.7v-2.77a11.564,11.564,0,0,0-.06-1.46v-.92c0-.54-.06-1.08-.1-1.61v-.68c-.06-.75-.12-1.49-.19-2.22h0c-.06-.63-.13-1.25-.2-1.87a5.348,5.348,0,0,0-.07-.56c-.06-.43-.11-.86-.17-1.29a4.868,4.868,0,0,0-.1-.65c-.06-.39-.12-.78-.19-1.17a4.218,4.218,0,0,0-.1-.62l-.06-.35a2.969,2.969,0,0,0-.08-.41l-.33-1.63c-.05-.21-.09-.42-.14-.63-.16-.71-.33-1.41-.51-2.08h0c-.16-.6-.33-1.19-.51-1.76l-.18-.56c-.12-.38-.25-.77-.38-1.14a.257.257,0,0,0-.07-.21,2,2,0,0,1-.19-.49l-.3-.8c-.09-.23-.19-.46-.29-.69s-.21-.51-.32-.76a.685.685,0,0,0-.11-.25c-.13-.29-.27-.58-.4-.86-.34-.68-.7-1.34-1.06-2-.05-.08-.09-.17-.13-.25l-.18-.29c-.2-.34-.4-.68-.6-1s-.23-.38-.35-.56c-.23-.36-.47-.72-.72-1.07-.07-.11-.14-.22-.22-.33v-.06q-.56-.77-1.14-1.5l-.3-.37c-.3-.36-.61-.72-.92-1.07-.06-.07-.13-.16-.2-.23l-.17-.17a16.687,16.687,0,0,0-1.37-1.41l-1-.92-.32-.27-.74-.61-.37-.28q-.4-.31-.81-.6l-.29-.21-.1-.07-.42-.27c-.26-.18-.53-.35-.8-.52l-.56-.33-.78-.45-.18-.1-.29-.15c-.42-.21-.83-.42-1.26-.62l-.48-.22c-.57-.25-1.14-.49-1.73-.71s-.91-.33-1.37-.48l-.46-.14-.74-.22h-.17c-.49-.14-1-.26-1.49-.37l-.24-.06c-.59-.13-1.18-.24-1.79-.34h-.12l-.57-.08-1-.13-.75-.08-1-.09h-5.62l-1.41.1h-.07c-.45.05-.9.09-1.34.15l-.41.06-.91.13h-.13l-.41.07-.69.13-.55.11-.67.15h-.19l-.37.1-.61.15-.56.16-.59.18-.21.06-.33.12-.59.2-.53.19-.57.22-.24.09-.27.12-.62.26-.48.22-.61.3-.28.13a1.511,1.511,0,0,1-.18.09l-.76.42-.36.19c-.37.21-.73.43-1.09.65h0c-.58.36-1.13.75-1.67,1.15-.17.11-.32.24-.48.36s-.45.33-.66.51-.32.28-.48.41l-.55.48c-.37.33-.73.68-1.08,1l-.44.43a14.721,14.721,0,0,0-1.4,1.56l-.17.22c-.39.47-.77,1-1.13,1.47-.14.19-.27.39-.4.58-.28.41-.56.82-.82,1.24l-.41.67c-.26.44-.51.89-.76,1.35l-.33.62c-.34.68-.67,1.36-1,2.07A55.461,55.461,0,0,0,198,128.9a127.458,127.458,0,0,0-1.1,17.57V158a127.362,127.362,0,0,1,1.1-17.57A55.34,55.34,0,0,1,201.46,127c.31-.71.64-1.4,1-2.07l.33-.62c.25-.46.5-.91.76-1.35l.41-.67c.26-.42.54-.84.82-1.24.13-.2.26-.4.4-.59.36-.5.74-1,1.13-1.46l.17-.22c.45-.54.92-1.06,1.4-1.56l.44-.44q.52-.53,1.08-1l.55-.48c.37-.32.75-.62,1.14-.92.16-.12.31-.25.48-.37.55-.4,1.12-.8,1.7-1.17.36-.22.72-.44,1.09-.65l.36-.2.76-.41.46-.23.61-.29.48-.22.62-.27.51-.2.57-.22.53-.2.59-.2.54-.17.59-.18.56-.16.61-.15.56-.14.66-.15.56-.11.68-.13.55-.1.91-.13.41-.05c.44-.06.89-.11,1.34-.15h.07c.46,0,.93-.08,1.41-.1h4.58l1,.06c.33,0,.65.06,1,.09l.75.07,1,.14.69.1c.61.1,1.2.21,1.79.34h.24l1.49.37.91.27.46.14c.46.15.92.31,1.37.48s1.16.46,1.73.71l.48.22c.43.2.84.4,1.26.62l.47.25q.39.21.78.45c.19.11.38.21.56.33s.54.34.8.51l.52.35.29.21c.27.19.55.39.81.6l.36.28c.26.2.5.4.75.61l.32.27c.34.3.68.6,1,.92s.93.92,1.37,1.4l.37.41c.31.35.62.71.92,1.07l.3.37c.39.49.77,1,1.14,1.5l.26.39c.25.35.49.71.72,1.07l.35.55.6,1,.31.54c.36.65.72,1.31,1.06,2l.51,1.11c.11.25.22.5.32.76s.2.45.29.69l.3.8c.09.23.18.46.26.7s.26.75.38,1.14l.18.56c.18.57.35,1.16.51,1.76h0c.18.67.35,1.37.51,2.07.05.21.09.43.14.64.11.53.22,1.08.33,1.63a3.955,3.955,0,0,0,.14.75c.05.25.07.42.1.63.07.39.13.77.19,1.17a5.129,5.129,0,0,0,.1.65c.06.42.11.85.17,1.29a5.348,5.348,0,0,0,.07.56c.07.62.14,1.25.21,1.9s.13,1.46.19,2.21v.69c0,.53.07,1.07.1,1.61v.91c0,.49.05,1,.06,1.46s0,.68,0,1v3.43h0V145.37A5.936,5.936,0,0,0,267.31,143.7Z" fill="#395b77"/>
      <path id="路径_596" data-name="路径 596" d="M356.8,170.83l.09.09a3.442,3.442,0,0,1,.41.44l.12.15a6,6,0,0,1,.39.59.938.938,0,0,0,.05.1,5.365,5.365,0,0,1,.32.73h0a5.919,5.919,0,0,1,.22.78,1.062,1.062,0,0,1,0,.19,8.453,8.453,0,0,1,.14.9.492.492,0,0,0,0,.12c0,.31,0,.64,0,1V163.44a.489.489,0,0,1,0-.12h0a4.542,4.542,0,0,0-.1-.74v-.15a1.29,1.29,0,0,0,0-.19.431.431,0,0,0-.06-.27,3.936,3.936,0,0,1-.16-.51h0c-.06-.16-.12-.32-.19-.47s-.09-.17-.13-.25l-.05-.1v-.08a4.172,4.172,0,0,0-.26-.42l-.09-.1-.12-.15-.16-.2-.25-.24-.09-.09a4.062,4.062,0,0,0-.46-.36l-.11-.07-.12-.07-.19-.12-.49-.23c-.26-.11-.53-.22-.81-.31l-.29-.1-.54-.16h0l-.65-.16-.34-.08-1-.19h-.09c-.36-.06-.74-.11-1.12-.15h-.38l-.82-.07h-5.45v11.49h5.45l.82.07h.38l1.12.16h.09l1,.18.34.08.65.16.58.18.29.09c.28.1.55.2.81.31a6.231,6.231,0,0,1,.68.36l.12.07A4.728,4.728,0,0,1,356.8,170.83Z" fill="#395b77"/>
      <rect id="矩形_190" data-name="矩形 190" width="29.56" height="11.49" transform="translate(297.24 157.13)" fill="#395b77"/>
      <path id="路径_597" data-name="路径 597" d="M344,106.86v-2.02a4.422,4.422,0,0,0-.1-.73c-.04-.24,0-.23-.05-.33a1.885,1.885,0,0,0-.05-.23,2.294,2.294,0,0,0-.11-.52c-.04-.17-.05-.23-.08-.34a1.834,1.834,0,0,0-.08-.25l-.12-.4a.786.786,0,0,0-.08-.26c-.03-.08-.09-.23-.14-.35s-.08-.21-.13-.31l-.06-.15c-.08-.18-.17-.34-.26-.51a1.741,1.741,0,0,0-.1-.19h0q-.21-.37-.45-.72h0c-.09-.12-.19-.24-.29-.35s-.19-.26-.29-.37h0a6.137,6.137,0,0,0-.45-.43l-.25-.24a7.614,7.614,0,0,0-.64-.48l-.14-.1h0l-.46-.27a1.111,1.111,0,0,0-.19-.09c-.16-.09-.34-.17-.51-.25a3.728,3.728,0,0,0-.44-.18l-.57-.2-.31-.1h-.14a9.783,9.783,0,0,0-1-.22h-.2c-.41-.06-.83-.11-1.27-.14h-2.06a1.579,1.579,0,0,0-.64.09h-.13a.73.73,0,0,0-.43.09.35.35,0,0,0-.11,0,1.41,1.41,0,0,0-.22.06l-.24.06-.2.08-.23.08h-.14l-.27.12-.24.11h-.08l-.24.14-.33.18h-.07l-.14.11a4.7,4.7,0,0,0-.53.38l-.12.08-.28.24a53,53,0,0,0-5.88,6.55l-36.43,45.8c-1,1.25-1.86,2.31-2.54,3.17s-1.36,1.75-2,2.68a12.249,12.249,0,0,0-1.44,2.65,7.171,7.171,0,0,0-.45,1.87c0,.2,0,.41,0,.61h0v11.49a7,7,0,0,1,.48-2.49,12.428,12.428,0,0,1,1.44-2.64c.64-.93,1.31-1.82,2-2.69l2.54-3.16L322.12,116a53.27,53.27,0,0,1,5.88-6.56l.4-.32.53-.38.21-.14.33-.19.32-.17.24-.11.41-.17.23-.09.44-.14.22-.06.54-.11H332c.23,0,.47-.07.71-.09h2.08a12.646,12.646,0,0,1,1.27.14h.25q.51.09,1,.21l.45.14c.19.06.39.12.57.19l.44.19.51.24c.23.12.45.24.65.37h0l.15.1a7.621,7.621,0,0,1,.64.48c.09.07.17.16.26.24s.3.28.44.43a3.889,3.889,0,0,1,.32.39c.1.12.2.23.29.36a6.069,6.069,0,0,1,.49.78,1.141,1.141,0,0,1,.1.19c.11.21.22.43.32.65a2.6,2.6,0,0,1,.13.32c.04.11.15.4.22.61l.12.39c.06.2.11.4.16.6s.08.34.11.52.07.37.1.56.07.48.1.73.06.52.08.79v1.52h0V106.86Z" fill="#395b77"/>
      <path id="路径_598" data-name="路径 598" d="M181.06,170q3.19,1.36,3.2,5.95a6,6,0,0,1-2.61,5.45c-1.74,1.15-4.36,1.72-7.84,1.72h-4.19v12q0,5-2.34,7.39a9.16,9.16,0,0,1-12.48-.07c-1.58-1.65-2.37-4.1-2.37-7.32v-12H117.92q-6.53,0-9.79-2.78a9.36,9.36,0,0,1-3.27-7.56,7,7,0,0,1,.48-2.49,12.43,12.43,0,0,1,1.44-2.64c.65-.93,1.31-1.82,2-2.69l2.55-3.16L147.76,116a53.361,53.361,0,0,1,5.87-6.56,8.12,8.12,0,0,1,5.54-2q10.44,0,10.45,11.25v50h2.95a22.17,22.17,0,0,1,8.49,1.31Zm-28.63-1.35V131.09l-29.56,37.53h29.56" fill="#4a779b"/>
      <path id="路径_599" data-name="路径 599" d="M262.1,126.69q5.22,10.67,5.22,30.17A104.742,104.742,0,0,1,266,175.07a40.85,40.85,0,0,1-5.09,13.83,32.76,32.76,0,0,1-12.1,11.76,33.29,33.29,0,0,1-16.5,4.13,32.86,32.86,0,0,1-18.73-5.55,34.11,34.11,0,0,1-12.48-15.38A54.59,54.59,0,0,1,197.92,172a93.33,93.33,0,0,1-1-14,127.356,127.356,0,0,1,1.1-17.57A55.34,55.34,0,0,1,201.46,127a30.81,30.81,0,0,1,11.79-14.18q7.73-4.87,18.46-4.88a36.2,36.2,0,0,1,12.85,2.17,29.45,29.45,0,0,1,10.14,6.33,36.1,36.1,0,0,1,7.4,10.25Zm-15.06,49a113.492,113.492,0,0,0,1.44-20.15A101.2,101.2,0,0,0,247,136.22c-1-5-2.7-8.81-5.08-11.37S236.2,121,232,121q-9.07,0-12.61,8.59t-3.54,26.48a107,107,0,0,0,1.51,19.9q1.51,7.76,5.09,11.73a12.37,12.37,0,0,0,9.69,4q6.33,0,9.9-4.14c2.39-2.75,4-6.69,5-11.82" fill="#4a779b"/>
      <path id="路径_600" data-name="路径 600" d="M355.43,170q3.19,1.36,3.2,5.95a6,6,0,0,1-2.62,5.45q-2.61,1.73-7.83,1.72H344v12q0,5-2.33,7.39a8.29,8.29,0,0,1-6.26,2.42,8.19,8.19,0,0,1-6.22-2.49c-1.58-1.65-2.37-4.1-2.37-7.32v-12H292.29q-6.54,0-9.8-2.78a9.42,9.42,0,0,1-3.26-7.56,7,7,0,0,1,.48-2.49,12.428,12.428,0,0,1,1.44-2.64c.64-.93,1.31-1.82,2-2.69l2.54-3.16L322.12,116a53.27,53.27,0,0,1,5.88-6.56,8.1,8.1,0,0,1,5.54-2q10.44,0,10.44,11.25v50h3a22.17,22.17,0,0,1,8.45,1.31Zm-28.63-1.35V131.09l-29.56,37.53H326.8" fill="#4a779b"/>
      <path id="路径_601" data-name="路径 601" d="M270.46,172.17c.07,1.42-.5,2.61-1.28,2.64s-1.46-1.08-1.53-2.5.5-2.6,1.28-2.64S270.39,170.75,270.46,172.17Z" fill="#7cb3e1"/>
      <path id="路径_602" data-name="路径 602" d="M285.58,170.34c.33,0,.62.46.65,1.06s-.21,1.1-.54,1.12l-.88.09c.12-.19.17-.36,0-.48-.38-.34-.75-.34-1-.08s-.17.57-.48.71h0l-3.26.34-.61.07a3.681,3.681,0,0,0,.19-1.45,3.761,3.761,0,0,0-.33-1.42h2c0,.31.1.73.42.83a19.283,19.283,0,0,0,3.06.13c1,0,.41-.65.47-.93h.29Z" fill="#728cb9"/>
      <path id="路径_603" data-name="路径 603" d="M279.17,171.65a3.49,3.49,0,0,1-1.1,2.61l-8.67,1.23c.89-.21,1.53-1.64,1.44-3.34S270,169.06,269,169l8.79.38a2.92,2.92,0,0,1,1.38,2.27Z" fill="#7798b9"/>
      <path id="路径_604" data-name="路径 604" d="M279.37,170.3a3.761,3.761,0,0,1,.33,1.42,3.68,3.68,0,0,1-.19,1.45c-.21.6-.57,1-1,1l-.43.06a3.49,3.49,0,0,0,1.1-2.61,2.92,2.92,0,0,0-1.34-2.3h.44A1.461,1.461,0,0,1,279.37,170.3Z" fill="#a4c0d9"/>
      <path id="路径_605" data-name="路径 605" d="M269.18,174.81c.78,0,1.35-1.22,1.28-2.64s-.75-2.54-1.53-2.5-1.35,1.22-1.28,2.64S268.41,174.85,269.18,174.81Zm1.66-2.66c.09,1.7-.55,3.13-1.44,3.34h-.17c-1,0-1.86-1.38-2-3.19s.64-3.31,1.63-3.36H269C270,169.06,270.76,170.44,270.84,172.15Z" fill="#a4c0d9"/>
      <path id="路径_606" data-name="路径 606" d="M303,176a1.14,1.14,0,0,0,.33.71,2.75,2.75,0,0,1-.88-.39A4.373,4.373,0,0,0,303,176Z"/>
      <path id="路径_607" data-name="路径 607" d="M298.64,166.65l.12.16A5.6,5.6,0,0,0,297,169a4.63,4.63,0,0,1-2.06-1.52C296.92,168,297.5,166.05,298.64,166.65Z"/>
      <path id="路径_608" data-name="路径 608" d="M306.62,169.68c-.86-3.88-3.84-4.21-3.84-4.21s-3.07-.47-4.14,1.18l.12.16A5.6,5.6,0,0,0,297,169a6.88,6.88,0,0,0,1.35.43c1.8.34,4.18.13,4.85,1.15s.22,2.66-.91,4.16c-.59.8-.28,1.31.16,1.62A4.369,4.369,0,0,0,303,176a.46.46,0,0,1,.28-.48,1.61,1.61,0,0,1,.49-.11,2.5,2.5,0,0,0,1.34-.39C305.68,174.58,307.49,173.56,306.62,169.68Z"/>
      <path id="路径_609" data-name="路径 609" d="M320.54,231.08c0,.63.23,3.56-.53,3.84a54,54,0,0,1-7.28,1.17c-1.07,0-.9-.85-.9-.85s7.18-.51,7.81-1.12.32-2.83.06-4.08a23.548,23.548,0,0,1-.41-4.38,16,16,0,0,0,.17-1.74c-.06-.35-1.59-1.62-1.59-1.62.11-.22.39-.31.9-.31s1.4,1.52,1.44,1.87-.38,1.49-.38,2.36S320.49,230.45,320.54,231.08Z" fill="#ebfcff"/>
      <path id="路径_610" data-name="路径 610" d="M319.7,230c.26,1.25.57,3.47-.06,4.08s-7.81,1.12-7.81,1.12v-1.3c0-.38,4.06-1.18,4.2-2s-.47-2.2-1.23-2.16c-.38,0-.48-.26-.49-.57a7.361,7.361,0,0,1,.07-.78c0-.24.95,1,1.35.77s.86-3.75-.28-4.77a1.05,1.05,0,0,0-.86-.28s-.8-.86-.69-1.18.63-.81,1-.31,1.46-.07,1.88-.22a4.57,4.57,0,0,1,1.13-.14s1.53,1.27,1.59,1.62a16,16,0,0,1-.17,1.74A23.55,23.55,0,0,0,319.7,230Z" fill="#ffb056"/>
      <path id="路径_611" data-name="路径 611" d="M313.73,229.3l.17,3L295,235.55a3.15,3.15,0,0,1-3.64-2.68l-2.74-20.29,9.2,2.1-.35,12.89,16-3v.18Z" fill="#395b77"/>
      <path id="路径_612" data-name="路径 612" d="M288.06,204.33c.51.45,9.48,2.36,15.15,2.31h0l-.77,5.1a3.62,3.62,0,0,1-4.4,3h-.24l-9.2-2.1-8.66-2,1.86,19-2.31.39-4.45.75-.33.06L272.81,204a2.71,2.71,0,0,1,3.39-2.81Z" fill="#3f6584"/>
      <path id="路径_613" data-name="路径 613" d="M305.83,192.12h0a22.99,22.99,0,0,0,.05,2.76l-10.67.31c-.63-.74-1.57-1.4-2-1a.6.6,0,0,0,.34,1c.32,0,1.08.71-.34.58s-2.1-.85-2.62-.44-.66,2.48,0,2.65,4.27.33,5.37-.22l10.05.51c.16,3,.39,6.37.53,7.94a11,11,0,0,1-3.37.43c-5.67.05-14.64-1.86-15.15-2.31s1.25-9.1,2.52-15.42a14.921,14.921,0,0,1-2.92,1.4,5.36,5.36,0,0,1-1.91-2.19,6.93,6.93,0,0,1-.7-4.55,2,2,0,0,1,.24-.6c1.44-1.05,5.18-2.8,7.2-4.19a8.25,8.25,0,0,1,4.06-1.22c-.17.32-.75,3,.87,3.44s5-.87,5-3.08a6.18,6.18,0,0,1,3.22.52c1.77,1,4.07,6.39,5.89,11.34-.32,1.08-2.22,1.88-4,2.19a8.159,8.159,0,0,1-1.66.15Z" fill="#ffb056"/>
      <path id="路径_614" data-name="路径 614" d="M279.49,229.99l-.01,1.94-4.21.92-.23-1.52v-.59Z" fill="#ffeed2"/>
      <path id="路径_615" data-name="路径 615" d="M314.38,228.43a7.354,7.354,0,0,0-.07.78h0l-.58.09-.27-4.55,2-.32c1.14,1,.61,4.6.28,4.77S314.38,228.19,314.38,228.43Z" fill="#ffeed2"/>
      <path id="路径_616" data-name="路径 616" d="M314,197.18c-.52-1.65-1.43-4.45-2.51-7.4-.32,1.08-2.22,1.88-4,2.19l1.08,2.83-2.68.08-10.67.31c-.63-.74-1.57-1.4-2-1a.6.6,0,0,0,.34,1c.32,0,1.08.71-.34.58s-2.1-.85-2.62-.44-.66,2.48,0,2.65,4.27.33,5.37-.22l10.05.51,6.84.35a1.11,1.11,0,0,0,1.14-1.44Z" fill="#ffeed2"/>
      <path id="路径_617" data-name="路径 617" d="M302.38,177.92c0,2.21-3.34,3.52-5,3.08s-1-3.12-.87-3.44a14.352,14.352,0,0,1,1.51,0c.17-.09.3-.54.3-.91a3.831,3.831,0,0,0,1.12.27,5.52,5.52,0,0,0,3-.59c-.32.56-.81,1.15-.74,1.48C301.73,177.92,302,177.93,302.38,177.92Z" fill="#ffeed2"/>
      <path id="路径_618" data-name="路径 618" d="M303.19,170.55c.67,1,.22,2.66-.91,4.16-.59.8-.28,1.31.16,1.62a5.52,5.52,0,0,1-3,.59,3.831,3.831,0,0,1-1.12-.27c-1.65-.71-2.29-2.23-2.05-4.86a9.179,9.179,0,0,1,1-2.68,3.911,3.911,0,0,0,1,.29C300.14,169.74,302.52,169.53,303.19,170.55Z" fill="#ffeed2"/>
      <path id="路径_619" data-name="路径 619" d="M285.29,170.34h0a2.875,2.875,0,0,0-1.47-1.51,6.8,6.8,0,0,0-2.48,0c-.34,0-.84,1.33-.9,1.48h.9c0,.31.1.73.42.83a19.281,19.281,0,0,0,3.06.13C285.8,171.29,285.23,170.62,285.29,170.34Z" fill="#ffeed2"/>
      <path id="路径_620" data-name="路径 620" d="M283.87,172.05c.22-.26.59-.26,1,.08.14.12.09.29,0,.48l-1.42.15C283.7,172.62,283.64,172.31,283.87,172.05Z" fill="#ffeed2"/>
      <path id="路径_621" data-name="路径 621" d="M283.38,172.76h0l1.42-.15c-.21.34-.64.74-.7,1.06-.09.49-1.08.75-1.52,1.35l-.48,10.24,2.94-1.69a6.93,6.93,0,0,0,.7,4.55L279.2,191a1,1,0,0,1-1.41-1.07l2.2-15.22c.12-1,.13-1.61.13-1.61Z" fill="#ffeed2"/>
      <path id="路径_622" data-name="路径 622" d="M303,187.14l1.72,4.81a3.36,3.36,0,0,0,1.11.17" fill="none" stroke="#e49056" stroke-miterlimit="10" stroke-width="0.26"/>
      <path id="路径_623" data-name="路径 623" d="M317.87,222.3c.11-.22.39-.31.9-.31s1.4,1.52,1.44,1.87-.38,1.49-.38,2.36.66,4.23.71,4.86.23,3.56-.53,3.84a54,54,0,0,1-7.28,1.17c-1.07,0-.9-.85-.9-.85" fill="none" stroke="#4986d9" stroke-miterlimit="10" stroke-width="0.1"/>
      <ellipse id="椭圆_87" data-name="椭圆 87" cx="1.32" cy="0.91" rx="1.32" ry="0.91" transform="translate(301.741 173.956) rotate(-63.53)" fill="#ffeed2"/>
      <ellipse id="椭圆_88" data-name="椭圆 88" cx="0.77" cy="0.53" rx="0.77" ry="0.53" transform="translate(302.326 173.633) rotate(-63.53)" fill="#e55c5c" opacity="0.2"/>
      <path id="路径_624" data-name="路径 624" d="M262.55,235.72a.72.72,0,0,1-.12-1.21c-.17.18.05.37.48.39a36.08,36.08,0,0,0,11.77-.55c1-.08,3.65.2,5.06.15,1.16-.05,1.62-.47,1.73-.86a1,1,0,0,1,.17,1.64c-.6.61-4.14.52-4.82.51s-7.56,0-8.57.12a26.721,26.721,0,0,1-5.7-.19Z" fill="#ebfcff"/>
      <path id="路径_625" data-name="路径 625" d="M280.69,231.61a8.329,8.329,0,0,1,.81,1.8.909.909,0,0,1,0,.23c-.11.39-.57.81-1.73.86-1.41.05-4-.23-5.06-.15a36.081,36.081,0,0,1-11.77.55c-.43,0-.65-.21-.48-.39a33.2,33.2,0,0,1,4.91-1.81,12.78,12.78,0,0,0,6.17-2.66,3.769,3.769,0,0,1,.75,0c.87.08,1.61.44,1.58.78s-.47.82.46.92a3.33,3.33,0,0,0,2.36-.58c.33-.37.34-.67,1-.56h.46c.39,0,.58,0,.7.17S280.52,231.25,280.69,231.61Z" fill="#ffb056"/>
      <path id="路径_626" data-name="路径 626" d="M262.43,234.51a.72.72,0,0,0,.12,1.21,26.721,26.721,0,0,0,5.7.19c1-.17,7.9-.13,8.57-.12s4.22.1,4.82-.51a1,1,0,0,0-.17-1.64h0" fill="none" stroke="#4986d9" stroke-miterlimit="10" stroke-width="0.1"/>
    </g>
  </g>
</svg>
